<svg xmlns="http://www.w3.org/2000/svg" xmlns:xlink="http://www.w3.org/1999/xlink" contentStyleType="text/css" data-diagram-type="CLASS" height="636px" preserveAspectRatio="none" style="width:3439px;height:636px;background:#FFFFFF;" version="1.1" viewBox="0 0 3439 636" width="3439px" zoomAndPan="magnify"><title>OntoMI &#8212; UML de Classes (vis&#227;o estrutural do TTL fornecido)</title><defs/><g><g class="title" data-source-line="1"><text fill="#000000" font-family="sans-serif" font-size="14" font-weight="bold" lengthAdjust="spacing" textLength="483.7314" x="1471.0133" y="22.9951">OntoMI &#8212; UML de Classes (vis&#227;o estrutural do TTL fornecido)</text></g><!--cluster Upper Ontologies (refer?ncia)--><g class="cluster" data-entity="Upper Ontologies .refer.ncia." data-source-line="8" data-uid="ent0002" id="cluster_Upper Ontologies .refer.ncia."><rect fill="none" height="104.94" rx="2.5" ry="2.5" style="stroke:#000000;stroke-width:1.5;" width="557" x="87.85" y="525.5869"/><text fill="#000000" font-family="sans-serif" font-size="14" font-weight="bold" lengthAdjust="spacing" textLength="236.4961" x="248.102" y="540.582">Upper Ontologies (refer&#234;ncia)</text></g><!--cluster OntoMI Core--><g class="cluster" data-entity="OntoMI Core" data-source-line="15" data-uid="ent0006" id="cluster_OntoMI Core"><rect fill="none" height="448.29" rx="2.5" ry="2.5" style="stroke:#000000;stroke-width:1.5;" width="2125" x="448.85" y="44.2969"/><text fill="#000000" font-family="sans-serif" font-size="14" font-weight="bold" lengthAdjust="spacing" textLength="98.4854" x="1462.1073" y="59.292">OntoMI Core</text></g><!--class BFO_Process--><g class="entity" data-entity="BFO_Process" data-source-line="9" data-uid="ent0003" id="entity_BFO_Process"><rect fill="#F1F1F1" height="53.9375" rx="2.5" ry="2.5" style="stroke:#181818;stroke-width:0.5;" width="110.6621" x="518.51" y="560.5869"/><ellipse cx="533.51" cy="579.5556" fill="#ADD1B2" rx="11" ry="11" style="stroke:#181818;stroke-width:1;"/><path d="M536.4788,585.1963 Q535.9006,585.4931 535.26,585.6338 Q534.6194,585.79 533.9163,585.79 Q531.4163,585.79 530.0881,584.1494 Q528.7756,582.4931 528.7756,579.3681 Q528.7756,576.2431 530.0881,574.5869 Q531.4163,572.9306 533.9163,572.9306 Q534.6194,572.9306 535.26,573.0869 Q535.9163,573.2431 536.4788,573.54 L536.4788,576.2588 Q535.8538,575.6806 535.26,575.415 Q534.6663,575.1338 534.0413,575.1338 Q532.6975,575.1338 532.01,576.2119 Q531.3225,577.2744 531.3225,579.3681 Q531.3225,581.4619 532.01,582.54 Q532.6975,583.6025 534.0413,583.6025 Q534.6663,583.6025 535.26,583.3369 Q535.8538,583.0556 536.4788,582.4775 L536.4788,585.1963 Z " fill="#000000"/><text fill="#000000" font-family="sans-serif" font-size="12" font-style="italic" lengthAdjust="spacing" textLength="39.2637" x="567.2092" y="576.7255">&#171;BFO&#187;</text><text fill="#000000" font-family="sans-serif" font-size="12" lengthAdjust="spacing" textLength="78.6621" x="547.51" y="590.6943">BFO::Process</text><line style="stroke:#181818;stroke-width:0.5;" x1="519.51" x2="628.1721" y1="598.5244" y2="598.5244"/><line style="stroke:#181818;stroke-width:0.5;" x1="519.51" x2="628.1721" y1="606.5244" y2="606.5244"/></g><!--class BFO_Disposition--><g class="entity" data-entity="BFO_Disposition" data-source-line="10" data-uid="ent0004" id="entity_BFO_Disposition"><rect fill="#F1F1F1" height="53.9375" rx="2.5" ry="2.5" style="stroke:#181818;stroke-width:0.5;" width="131.0234" x="104.33" y="560.5869"/><ellipse cx="119.33" cy="579.5556" fill="#ADD1B2" rx="11" ry="11" style="stroke:#181818;stroke-width:1;"/><path d="M122.2988,585.1963 Q121.7206,585.4931 121.08,585.6338 Q120.4394,585.79 119.7363,585.79 Q117.2363,585.79 115.9081,584.1494 Q114.5956,582.4931 114.5956,579.3681 Q114.5956,576.2431 115.9081,574.5869 Q117.2363,572.9306 119.7363,572.9306 Q120.4394,572.9306 121.08,573.0869 Q121.7363,573.2431 122.2988,573.54 L122.2988,576.2588 Q121.6738,575.6806 121.08,575.415 Q120.4863,575.1338 119.8613,575.1338 Q118.5175,575.1338 117.83,576.2119 Q117.1425,577.2744 117.1425,579.3681 Q117.1425,581.4619 117.83,582.54 Q118.5175,583.6025 119.8613,583.6025 Q120.4863,583.6025 121.08,583.3369 Q121.6738,583.0556 122.2988,582.4775 L122.2988,585.1963 Z " fill="#000000"/><text fill="#000000" font-family="sans-serif" font-size="12" font-style="italic" lengthAdjust="spacing" textLength="39.2637" x="163.2099" y="576.7255">&#171;BFO&#187;</text><text fill="#000000" font-family="sans-serif" font-size="12" lengthAdjust="spacing" textLength="99.0234" x="133.33" y="590.6943">BFO::Disposition</text><line style="stroke:#181818;stroke-width:0.5;" x1="105.33" x2="234.3534" y1="598.5244" y2="598.5244"/><line style="stroke:#181818;stroke-width:0.5;" x1="105.33" x2="234.3534" y1="606.5244" y2="606.5244"/></g><!--class IAO_ICE--><g class="entity" data-entity="IAO_ICE" data-source-line="11" data-uid="ent0005" id="entity_IAO_ICE"><rect fill="#F1F1F1" height="53.9375" rx="2.5" ry="2.5" style="stroke:#181818;stroke-width:0.5;" width="213.7109" x="269.99" y="560.5869"/><ellipse cx="284.99" cy="579.5556" fill="#ADD1B2" rx="11" ry="11" style="stroke:#181818;stroke-width:1;"/><path d="M287.9588,585.1963 Q287.3806,585.4931 286.74,585.6338 Q286.0994,585.79 285.3963,585.79 Q282.8963,585.79 281.5681,584.1494 Q280.2556,582.4931 280.2556,579.3681 Q280.2556,576.2431 281.5681,574.5869 Q282.8963,572.9306 285.3963,572.9306 Q286.0994,572.9306 286.74,573.0869 Q287.3963,573.2431 287.9588,573.54 L287.9588,576.2588 Q287.3338,575.6806 286.74,575.415 Q286.1463,575.1338 285.5213,575.1338 Q284.1775,575.1338 283.49,576.2119 Q282.8025,577.2744 282.8025,579.3681 Q282.8025,581.4619 283.49,582.54 Q284.1775,583.6025 285.5213,583.6025 Q286.1463,583.6025 286.74,583.3369 Q287.3338,583.0556 287.9588,582.4775 L287.9588,585.1963 Z " fill="#000000"/><text fill="#000000" font-family="sans-serif" font-size="12" font-style="italic" lengthAdjust="spacing" textLength="35.877" x="371.907" y="576.7255">&#171;IAO&#187;</text><text fill="#000000" font-family="sans-serif" font-size="12" lengthAdjust="spacing" textLength="181.7109" x="298.99" y="590.6943">IAO::InformationContentEntity</text><line style="stroke:#181818;stroke-width:0.5;" x1="270.99" x2="482.7009" y1="598.5244" y2="598.5244"/><line style="stroke:#181818;stroke-width:0.5;" x1="270.99" x2="482.7009" y1="606.5244" y2="606.5244"/></g><!--class Intelligence--><g class="entity" data-entity="Intelligence" data-source-line="16" data-uid="ent0007" id="entity_Intelligence"><rect fill="#F1F1F1" height="53.9375" rx="2.5" ry="2.5" style="stroke:#181818;stroke-width:0.5;" width="141.707" x="464.99" y="87.4369"/><ellipse cx="479.99" cy="106.4056" fill="#A9DCDF" rx="11" ry="11" style="stroke:#181818;stroke-width:1;"/><path d="M480.0994,101.7494 L478.9431,106.8275 L481.2713,106.8275 L480.0994,101.7494 Z M478.615,99.515 L481.5994,99.515 L484.9588,111.9056 L482.5056,111.9056 L481.74,108.8431 L478.4588,108.8431 L477.7088,111.9056 L475.2713,111.9056 L478.615,99.515 Z " fill="#000000"/><text fill="#000000" font-family="sans-serif" font-size="12" font-style="italic" lengthAdjust="spacing" textLength="113.707" x="491.99" y="103.5755">&#171;BFO::Disposition&#187;</text><text fill="#000000" font-family="sans-serif" font-size="12" font-style="italic" lengthAdjust="spacing" textLength="69.8203" x="513.9334" y="117.5443">Intelligence</text><line style="stroke:#181818;stroke-width:0.5;" x1="465.99" x2="605.697" y1="125.3744" y2="125.3744"/><line style="stroke:#181818;stroke-width:0.5;" x1="465.99" x2="605.697" y1="133.3744" y2="133.3744"/></g><!--class IntelligenceDisposition--><g class="entity" data-entity="IntelligenceDisposition" data-source-line="17" data-uid="ent0008" id="entity_IntelligenceDisposition"><rect fill="#F1F1F1" height="53.9375" rx="2.5" ry="2.5" style="stroke:#181818;stroke-width:0.5;" width="168.1777" x="1270.76" y="406.3569"/><ellipse cx="1285.76" cy="425.3256" fill="#ADD1B2" rx="11" ry="11" style="stroke:#181818;stroke-width:1;"/><path d="M1288.7288,430.9663 Q1288.1506,431.2631 1287.51,431.4038 Q1286.8694,431.56 1286.1663,431.56 Q1283.6663,431.56 1282.3381,429.9194 Q1281.0256,428.2631 1281.0256,425.1381 Q1281.0256,422.0131 1282.3381,420.3569 Q1283.6663,418.7006 1286.1663,418.7006 Q1286.8694,418.7006 1287.51,418.8569 Q1288.1663,419.0131 1288.7288,419.31 L1288.7288,422.0288 Q1288.1038,421.4506 1287.51,421.185 Q1286.9163,420.9038 1286.2913,420.9038 Q1284.9475,420.9038 1284.26,421.9819 Q1283.5725,423.0444 1283.5725,425.1381 Q1283.5725,427.2319 1284.26,428.31 Q1284.9475,429.3725 1286.2913,429.3725 Q1286.9163,429.3725 1287.51,429.1069 Q1288.1038,428.8256 1288.7288,428.2475 L1288.7288,430.9663 Z " fill="#000000"/><text fill="#000000" font-family="sans-serif" font-size="12" font-style="italic" lengthAdjust="spacing" textLength="113.707" x="1310.9954" y="422.4955">&#171;BFO::Disposition&#187;</text><text fill="#000000" font-family="sans-serif" font-size="12" lengthAdjust="spacing" textLength="136.1777" x="1299.76" y="436.4643">IntelligenceDisposition</text><line style="stroke:#181818;stroke-width:0.5;" x1="1271.76" x2="1437.9377" y1="444.2944" y2="444.2944"/><line style="stroke:#181818;stroke-width:0.5;" x1="1271.76" x2="1437.9377" y1="452.2944" y2="452.2944"/></g><!--class LinguisticIntelligence--><g class="entity" data-entity="LinguisticIntelligence" data-source-line="22" data-uid="ent0011" id="entity_LinguisticIntelligence"><rect fill="#F1F1F1" height="48" rx="2.5" ry="2.5" style="stroke:#181818;stroke-width:0.5;" width="158.8906" x="1275.4" y="245.7969"/><ellipse cx="1290.4" cy="261.7969" fill="#ADD1B2" rx="11" ry="11" style="stroke:#181818;stroke-width:1;"/><path d="M1293.3687,267.4375 Q1292.7906,267.7344 1292.15,267.875 Q1291.5094,268.0313 1290.8062,268.0313 Q1288.3062,268.0313 1286.9781,266.3906 Q1285.6656,264.7344 1285.6656,261.6094 Q1285.6656,258.4844 1286.9781,256.8281 Q1288.3062,255.1719 1290.8062,255.1719 Q1291.5094,255.1719 1292.15,255.3281 Q1292.8062,255.4844 1293.3687,255.7813 L1293.3687,258.5 Q1292.7437,257.9219 1292.15,257.6563 Q1291.5562,257.375 1290.9312,257.375 Q1289.5875,257.375 1288.9,258.4531 Q1288.2125,259.5156 1288.2125,261.6094 Q1288.2125,263.7031 1288.9,264.7813 Q1289.5875,265.8438 1290.9312,265.8438 Q1291.5562,265.8438 1292.15,265.5781 Q1292.7437,265.2969 1293.3687,264.7188 L1293.3687,267.4375 Z " fill="#000000"/><text fill="#000000" font-family="sans-serif" font-size="12" lengthAdjust="spacing" textLength="126.8906" x="1304.4" y="265.9512">LinguisticIntelligence</text><line style="stroke:#181818;stroke-width:0.5;" x1="1276.4" x2="1433.2906" y1="277.7969" y2="277.7969"/><line style="stroke:#181818;stroke-width:0.5;" x1="1276.4" x2="1433.2906" y1="285.7969" y2="285.7969"/></g><!--class LogicalMathematicalIntelligence--><g class="entity" data-entity="LogicalMathematicalIntelligence" data-source-line="23" data-uid="ent0012" id="entity_LogicalMathematicalIntelligence"><rect fill="#F1F1F1" height="48" rx="2.5" ry="2.5" style="stroke:#181818;stroke-width:0.5;" width="225.8516" x="1468.92" y="245.7969"/><ellipse cx="1483.92" cy="261.7969" fill="#ADD1B2" rx="11" ry="11" style="stroke:#181818;stroke-width:1;"/><path d="M1486.8887,267.4375 Q1486.3106,267.7344 1485.67,267.875 Q1485.0294,268.0313 1484.3262,268.0313 Q1481.8262,268.0313 1480.4981,266.3906 Q1479.1856,264.7344 1479.1856,261.6094 Q1479.1856,258.4844 1480.4981,256.8281 Q1481.8262,255.1719 1484.3262,255.1719 Q1485.0294,255.1719 1485.67,255.3281 Q1486.3262,255.4844 1486.8887,255.7813 L1486.8887,258.5 Q1486.2637,257.9219 1485.67,257.6563 Q1485.0762,257.375 1484.4512,257.375 Q1483.1075,257.375 1482.42,258.4531 Q1481.7325,259.5156 1481.7325,261.6094 Q1481.7325,263.7031 1482.42,264.7813 Q1483.1075,265.8438 1484.4512,265.8438 Q1485.0762,265.8438 1485.67,265.5781 Q1486.2637,265.2969 1486.8887,264.7188 L1486.8887,267.4375 Z " fill="#000000"/><text fill="#000000" font-family="sans-serif" font-size="12" lengthAdjust="spacing" textLength="193.8516" x="1497.92" y="265.9512">LogicalMathematicalIntelligence</text><line style="stroke:#181818;stroke-width:0.5;" x1="1469.92" x2="1693.7716" y1="277.7969" y2="277.7969"/><line style="stroke:#181818;stroke-width:0.5;" x1="1469.92" x2="1693.7716" y1="285.7969" y2="285.7969"/></g><!--class SpatialIntelligence--><g class="entity" data-entity="SpatialIntelligence" data-source-line="24" data-uid="ent0013" id="entity_SpatialIntelligence"><rect fill="#F1F1F1" height="48" rx="2.5" ry="2.5" style="stroke:#181818;stroke-width:0.5;" width="143.1348" x="1729.28" y="245.7969"/><ellipse cx="1744.28" cy="261.7969" fill="#ADD1B2" rx="11" ry="11" style="stroke:#181818;stroke-width:1;"/><path d="M1747.2488,267.4375 Q1746.6706,267.7344 1746.03,267.875 Q1745.3894,268.0313 1744.6863,268.0313 Q1742.1863,268.0313 1740.8581,266.3906 Q1739.5456,264.7344 1739.5456,261.6094 Q1739.5456,258.4844 1740.8581,256.8281 Q1742.1863,255.1719 1744.6863,255.1719 Q1745.3894,255.1719 1746.03,255.3281 Q1746.6863,255.4844 1747.2488,255.7813 L1747.2488,258.5 Q1746.6238,257.9219 1746.03,257.6563 Q1745.4363,257.375 1744.8113,257.375 Q1743.4675,257.375 1742.78,258.4531 Q1742.0925,259.5156 1742.0925,261.6094 Q1742.0925,263.7031 1742.78,264.7813 Q1743.4675,265.8438 1744.8113,265.8438 Q1745.4363,265.8438 1746.03,265.5781 Q1746.6238,265.2969 1747.2488,264.7188 L1747.2488,267.4375 Z " fill="#000000"/><text fill="#000000" font-family="sans-serif" font-size="12" lengthAdjust="spacing" textLength="111.1348" x="1758.28" y="265.9512">SpatialIntelligence</text><line style="stroke:#181818;stroke-width:0.5;" x1="1730.28" x2="1871.4148" y1="277.7969" y2="277.7969"/><line style="stroke:#181818;stroke-width:0.5;" x1="1730.28" x2="1871.4148" y1="285.7969" y2="285.7969"/></g><!--class BodilyKinestheticIntelligence--><g class="entity" data-entity="BodilyKinestheticIntelligence" data-source-line="25" data-uid="ent0014" id="entity_BodilyKinestheticIntelligence"><rect fill="#F1F1F1" height="48" rx="2.5" ry="2.5" style="stroke:#181818;stroke-width:0.5;" width="205.5547" x="1907.07" y="245.7969"/><ellipse cx="1922.07" cy="261.7969" fill="#ADD1B2" rx="11" ry="11" style="stroke:#181818;stroke-width:1;"/><path d="M1925.0388,267.4375 Q1924.4606,267.7344 1923.82,267.875 Q1923.1794,268.0313 1922.4763,268.0313 Q1919.9763,268.0313 1918.6481,266.3906 Q1917.3356,264.7344 1917.3356,261.6094 Q1917.3356,258.4844 1918.6481,256.8281 Q1919.9763,255.1719 1922.4763,255.1719 Q1923.1794,255.1719 1923.82,255.3281 Q1924.4763,255.4844 1925.0388,255.7813 L1925.0388,258.5 Q1924.4138,257.9219 1923.82,257.6563 Q1923.2263,257.375 1922.6013,257.375 Q1921.2575,257.375 1920.57,258.4531 Q1919.8825,259.5156 1919.8825,261.6094 Q1919.8825,263.7031 1920.57,264.7813 Q1921.2575,265.8438 1922.6013,265.8438 Q1923.2263,265.8438 1923.82,265.5781 Q1924.4138,265.2969 1925.0388,264.7188 L1925.0388,267.4375 Z " fill="#000000"/><text fill="#000000" font-family="sans-serif" font-size="12" lengthAdjust="spacing" textLength="173.5547" x="1936.07" y="265.9512">BodilyKinestheticIntelligence</text><line style="stroke:#181818;stroke-width:0.5;" x1="1908.07" x2="2111.6247" y1="277.7969" y2="277.7969"/><line style="stroke:#181818;stroke-width:0.5;" x1="1908.07" x2="2111.6247" y1="285.7969" y2="285.7969"/></g><!--class MusicalIntelligence--><g class="entity" data-entity="MusicalIntelligence" data-source-line="26" data-uid="ent0015" id="entity_MusicalIntelligence"><rect fill="#F1F1F1" height="48" rx="2.5" ry="2.5" style="stroke:#181818;stroke-width:0.5;" width="146.6504" x="464.52" y="245.7969"/><ellipse cx="479.52" cy="261.7969" fill="#ADD1B2" rx="11" ry="11" style="stroke:#181818;stroke-width:1;"/><path d="M482.4888,267.4375 Q481.9106,267.7344 481.27,267.875 Q480.6294,268.0313 479.9263,268.0313 Q477.4263,268.0313 476.0981,266.3906 Q474.7856,264.7344 474.7856,261.6094 Q474.7856,258.4844 476.0981,256.8281 Q477.4263,255.1719 479.9263,255.1719 Q480.6294,255.1719 481.27,255.3281 Q481.9263,255.4844 482.4888,255.7813 L482.4888,258.5 Q481.8638,257.9219 481.27,257.6563 Q480.6763,257.375 480.0513,257.375 Q478.7075,257.375 478.02,258.4531 Q477.3325,259.5156 477.3325,261.6094 Q477.3325,263.7031 478.02,264.7813 Q478.7075,265.8438 480.0513,265.8438 Q480.6763,265.8438 481.27,265.5781 Q481.8638,265.2969 482.4888,264.7188 L482.4888,267.4375 Z " fill="#000000"/><text fill="#000000" font-family="sans-serif" font-size="12" lengthAdjust="spacing" textLength="114.6504" x="493.52" y="265.9512">MusicalIntelligence</text><line style="stroke:#181818;stroke-width:0.5;" x1="465.52" x2="610.1704" y1="277.7969" y2="277.7969"/><line style="stroke:#181818;stroke-width:0.5;" x1="465.52" x2="610.1704" y1="285.7969" y2="285.7969"/></g><!--class InterpersonalIntelligence--><g class="entity" data-entity="InterpersonalIntelligence" data-source-line="27" data-uid="ent0016" id="entity_InterpersonalIntelligence"><rect fill="#F1F1F1" height="48" rx="2.5" ry="2.5" style="stroke:#181818;stroke-width:0.5;" width="181.8066" x="645.94" y="245.7969"/><ellipse cx="660.94" cy="261.7969" fill="#ADD1B2" rx="11" ry="11" style="stroke:#181818;stroke-width:1;"/><path d="M663.9088,267.4375 Q663.3306,267.7344 662.69,267.875 Q662.0494,268.0313 661.3463,268.0313 Q658.8463,268.0313 657.5181,266.3906 Q656.2056,264.7344 656.2056,261.6094 Q656.2056,258.4844 657.5181,256.8281 Q658.8463,255.1719 661.3463,255.1719 Q662.0494,255.1719 662.69,255.3281 Q663.3463,255.4844 663.9088,255.7813 L663.9088,258.5 Q663.2838,257.9219 662.69,257.6563 Q662.0963,257.375 661.4713,257.375 Q660.1275,257.375 659.44,258.4531 Q658.7525,259.5156 658.7525,261.6094 Q658.7525,263.7031 659.44,264.7813 Q660.1275,265.8438 661.4713,265.8438 Q662.0963,265.8438 662.69,265.5781 Q663.2838,265.2969 663.9088,264.7188 L663.9088,267.4375 Z " fill="#000000"/><text fill="#000000" font-family="sans-serif" font-size="12" lengthAdjust="spacing" textLength="149.8066" x="674.94" y="265.9512">InterpersonalIntelligence</text><line style="stroke:#181818;stroke-width:0.5;" x1="646.94" x2="826.7466" y1="277.7969" y2="277.7969"/><line style="stroke:#181818;stroke-width:0.5;" x1="646.94" x2="826.7466" y1="285.7969" y2="285.7969"/></g><!--class IntrapersonalIntelligence--><g class="entity" data-entity="IntrapersonalIntelligence" data-source-line="28" data-uid="ent0017" id="entity_IntrapersonalIntelligence"><rect fill="#F1F1F1" height="48" rx="2.5" ry="2.5" style="stroke:#181818;stroke-width:0.5;" width="181.7773" x="862.96" y="245.7969"/><ellipse cx="877.96" cy="261.7969" fill="#ADD1B2" rx="11" ry="11" style="stroke:#181818;stroke-width:1;"/><path d="M880.9288,267.4375 Q880.3506,267.7344 879.71,267.875 Q879.0694,268.0313 878.3663,268.0313 Q875.8663,268.0313 874.5381,266.3906 Q873.2256,264.7344 873.2256,261.6094 Q873.2256,258.4844 874.5381,256.8281 Q875.8663,255.1719 878.3663,255.1719 Q879.0694,255.1719 879.71,255.3281 Q880.3663,255.4844 880.9288,255.7813 L880.9288,258.5 Q880.3038,257.9219 879.71,257.6563 Q879.1163,257.375 878.4913,257.375 Q877.1475,257.375 876.46,258.4531 Q875.7725,259.5156 875.7725,261.6094 Q875.7725,263.7031 876.46,264.7813 Q877.1475,265.8438 878.4913,265.8438 Q879.1163,265.8438 879.71,265.5781 Q880.3038,265.2969 880.9288,264.7188 L880.9288,267.4375 Z " fill="#000000"/><text fill="#000000" font-family="sans-serif" font-size="12" lengthAdjust="spacing" textLength="149.7773" x="891.96" y="265.9512">IntrapersonalIntelligence</text><line style="stroke:#181818;stroke-width:0.5;" x1="863.96" x2="1043.7373" y1="277.7969" y2="277.7969"/><line style="stroke:#181818;stroke-width:0.5;" x1="863.96" x2="1043.7373" y1="285.7969" y2="285.7969"/></g><!--class NaturalistIntelligence--><g class="entity" data-entity="NaturalistIntelligence" data-source-line="29" data-uid="ent0018" id="entity_NaturalistIntelligence"><rect fill="#F1F1F1" height="48" rx="2.5" ry="2.5" style="stroke:#181818;stroke-width:0.5;" width="160.373" x="1079.66" y="245.7969"/><ellipse cx="1094.66" cy="261.7969" fill="#ADD1B2" rx="11" ry="11" style="stroke:#181818;stroke-width:1;"/><path d="M1097.6287,267.4375 Q1097.0506,267.7344 1096.41,267.875 Q1095.7694,268.0313 1095.0662,268.0313 Q1092.5662,268.0313 1091.2381,266.3906 Q1089.9256,264.7344 1089.9256,261.6094 Q1089.9256,258.4844 1091.2381,256.8281 Q1092.5662,255.1719 1095.0662,255.1719 Q1095.7694,255.1719 1096.41,255.3281 Q1097.0662,255.4844 1097.6287,255.7813 L1097.6287,258.5 Q1097.0037,257.9219 1096.41,257.6563 Q1095.8162,257.375 1095.1912,257.375 Q1093.8475,257.375 1093.16,258.4531 Q1092.4725,259.5156 1092.4725,261.6094 Q1092.4725,263.7031 1093.16,264.7813 Q1093.8475,265.8438 1095.1912,265.8438 Q1095.8162,265.8438 1096.41,265.5781 Q1097.0037,265.2969 1097.6287,264.7188 L1097.6287,267.4375 Z " fill="#000000"/><text fill="#000000" font-family="sans-serif" font-size="12" lengthAdjust="spacing" textLength="128.373" x="1108.66" y="265.9512">NaturalistIntelligence</text><line style="stroke:#181818;stroke-width:0.5;" x1="1080.66" x2="1239.033" y1="277.7969" y2="277.7969"/><line style="stroke:#181818;stroke-width:0.5;" x1="1080.66" x2="1239.033" y1="285.7969" y2="285.7969"/></g><!--class ExplanationElement--><g class="entity" data-entity="ExplanationElement" data-source-line="41" data-uid="ent0027" id="entity_ExplanationElement"><rect fill="#F1F1F1" height="53.9375" rx="2.5" ry="2.5" style="stroke:#181818;stroke-width:0.5;" width="152.6152" x="2147.54" y="242.8269"/><ellipse cx="2162.54" cy="261.7956" fill="#ADD1B2" rx="11" ry="11" style="stroke:#181818;stroke-width:1;"/><path d="M2165.5088,267.4363 Q2164.9306,267.7331 2164.29,267.8738 Q2163.6494,268.03 2162.9463,268.03 Q2160.4463,268.03 2159.1181,266.3894 Q2157.8056,264.7331 2157.8056,261.6081 Q2157.8056,258.4831 2159.1181,256.8269 Q2160.4463,255.1706 2162.9463,255.1706 Q2163.6494,255.1706 2164.29,255.3269 Q2164.9463,255.4831 2165.5088,255.78 L2165.5088,258.4988 Q2164.8838,257.9206 2164.29,257.655 Q2163.6963,257.3738 2163.0713,257.3738 Q2161.7275,257.3738 2161.04,258.4519 Q2160.3525,259.5144 2160.3525,261.6081 Q2160.3525,263.7019 2161.04,264.78 Q2161.7275,265.8425 2163.0713,265.8425 Q2163.6963,265.8425 2164.29,265.5769 Q2164.8838,265.2956 2165.5088,264.7175 L2165.5088,267.4363 Z " fill="#000000"/><text fill="#000000" font-family="sans-serif" font-size="12" font-style="italic" lengthAdjust="spacing" textLength="63.4629" x="2205.1162" y="258.9655">&#171;IAO::ICE&#187;</text><text fill="#000000" font-family="sans-serif" font-size="12" lengthAdjust="spacing" textLength="120.6152" x="2176.54" y="272.9343">ExplanationElement</text><line style="stroke:#181818;stroke-width:0.5;" x1="2148.54" x2="2299.1552" y1="280.7644" y2="280.7644"/><line style="stroke:#181818;stroke-width:0.5;" x1="2148.54" x2="2299.1552" y1="288.7644" y2="288.7644"/></g><!--class Keyword--><g class="entity" data-entity="Keyword" data-source-line="42" data-uid="ent0028" id="entity_Keyword"><rect fill="#F1F1F1" height="53.9375" rx="2.5" ry="2.5" style="stroke:#181818;stroke-width:0.5;" width="91.4629" x="1682.11" y="87.4369"/><ellipse cx="1697.11" cy="106.4056" fill="#ADD1B2" rx="11" ry="11" style="stroke:#181818;stroke-width:1;"/><path d="M1700.0788,112.0462 Q1699.5006,112.3431 1698.86,112.4837 Q1698.2194,112.64 1697.5163,112.64 Q1695.0163,112.64 1693.6881,110.9994 Q1692.3756,109.3431 1692.3756,106.2181 Q1692.3756,103.0931 1693.6881,101.4369 Q1695.0163,99.7806 1697.5163,99.7806 Q1698.2194,99.7806 1698.86,99.9369 Q1699.5163,100.0931 1700.0788,100.39 L1700.0788,103.1087 Q1699.4538,102.5306 1698.86,102.265 Q1698.2663,101.9837 1697.6413,101.9837 Q1696.2975,101.9837 1695.61,103.0619 Q1694.9225,104.1244 1694.9225,106.2181 Q1694.9225,108.3119 1695.61,109.39 Q1696.2975,110.4525 1697.6413,110.4525 Q1698.2663,110.4525 1698.86,110.1869 Q1699.4538,109.9056 1700.0788,109.3275 L1700.0788,112.0462 Z " fill="#000000"/><text fill="#000000" font-family="sans-serif" font-size="12" font-style="italic" lengthAdjust="spacing" textLength="63.4629" x="1709.11" y="103.5755">&#171;IAO::ICE&#187;</text><text fill="#000000" font-family="sans-serif" font-size="12" lengthAdjust="spacing" textLength="52.0605" x="1714.8112" y="117.5443">Keyword</text><line style="stroke:#181818;stroke-width:0.5;" x1="1683.11" x2="1772.5729" y1="125.3744" y2="125.3744"/><line style="stroke:#181818;stroke-width:0.5;" x1="1683.11" x2="1772.5729" y1="133.3744" y2="133.3744"/></g><!--class ContextObject--><g class="entity" data-entity="ContextObject" data-source-line="43" data-uid="ent0029" id="entity_ContextObject"><rect fill="#F1F1F1" height="53.9375" rx="2.5" ry="2.5" style="stroke:#181818;stroke-width:0.5;" width="118.3027" x="1225.69" y="87.4369"/><ellipse cx="1240.69" cy="106.4056" fill="#ADD1B2" rx="11" ry="11" style="stroke:#181818;stroke-width:1;"/><path d="M1243.6587,112.0462 Q1243.0806,112.3431 1242.44,112.4837 Q1241.7994,112.64 1241.0962,112.64 Q1238.5962,112.64 1237.2681,110.9994 Q1235.9556,109.3431 1235.9556,106.2181 Q1235.9556,103.0931 1237.2681,101.4369 Q1238.5962,99.7806 1241.0962,99.7806 Q1241.7994,99.7806 1242.44,99.9369 Q1243.0962,100.0931 1243.6587,100.39 L1243.6587,103.1087 Q1243.0337,102.5306 1242.44,102.265 Q1241.8462,101.9837 1241.2212,101.9837 Q1239.8775,101.9837 1239.19,103.0619 Q1238.5025,104.1244 1238.5025,106.2181 Q1238.5025,108.3119 1239.19,109.39 Q1239.8775,110.4525 1241.2212,110.4525 Q1241.8462,110.4525 1242.44,110.1869 Q1243.0337,109.9056 1243.6587,109.3275 L1243.6587,112.0462 Z " fill="#000000"/><text fill="#000000" font-family="sans-serif" font-size="12" font-style="italic" lengthAdjust="spacing" textLength="63.4629" x="1266.1099" y="103.5755">&#171;IAO::ICE&#187;</text><text fill="#000000" font-family="sans-serif" font-size="12" lengthAdjust="spacing" textLength="86.3027" x="1254.69" y="117.5443">ContextObject</text><line style="stroke:#181818;stroke-width:0.5;" x1="1226.69" x2="1342.9927" y1="125.3744" y2="125.3744"/><line style="stroke:#181818;stroke-width:0.5;" x1="1226.69" x2="1342.9927" y1="133.3744" y2="133.3744"/></g><!--class DiscursiveStrategy--><g class="entity" data-entity="DiscursiveStrategy" data-source-line="44" data-uid="ent0030" id="entity_DiscursiveStrategy"><rect fill="#F1F1F1" height="53.9375" rx="2.5" ry="2.5" style="stroke:#181818;stroke-width:0.5;" width="145.4492" x="1461.12" y="87.4369"/><ellipse cx="1476.12" cy="106.4056" fill="#ADD1B2" rx="11" ry="11" style="stroke:#181818;stroke-width:1;"/><path d="M1479.0888,112.0462 Q1478.5106,112.3431 1477.87,112.4837 Q1477.2294,112.64 1476.5263,112.64 Q1474.0263,112.64 1472.6981,110.9994 Q1471.3856,109.3431 1471.3856,106.2181 Q1471.3856,103.0931 1472.6981,101.4369 Q1474.0263,99.7806 1476.5263,99.7806 Q1477.2294,99.7806 1477.87,99.9369 Q1478.5263,100.0931 1479.0888,100.39 L1479.0888,103.1087 Q1478.4638,102.5306 1477.87,102.265 Q1477.2763,101.9837 1476.6513,101.9837 Q1475.3075,101.9837 1474.62,103.0619 Q1473.9325,104.1244 1473.9325,106.2181 Q1473.9325,108.3119 1474.62,109.39 Q1475.3075,110.4525 1476.6513,110.4525 Q1477.2763,110.4525 1477.87,110.1869 Q1478.4638,109.9056 1479.0888,109.3275 L1479.0888,112.0462 Z " fill="#000000"/><text fill="#000000" font-family="sans-serif" font-size="12" font-style="italic" lengthAdjust="spacing" textLength="63.4629" x="1515.1132" y="103.5755">&#171;IAO::ICE&#187;</text><text fill="#000000" font-family="sans-serif" font-size="12" lengthAdjust="spacing" textLength="113.4492" x="1490.12" y="117.5443">DiscursiveStrategy</text><line style="stroke:#181818;stroke-width:0.5;" x1="1462.12" x2="1605.5692" y1="125.3744" y2="125.3744"/><line style="stroke:#181818;stroke-width:0.5;" x1="1462.12" x2="1605.5692" y1="133.3744" y2="133.3744"/></g><!--class ExplanationFragment--><g class="entity" data-entity="ExplanationFragment" data-source-line="53" data-uid="ent0038" id="entity_ExplanationFragment"><rect fill="#F1F1F1" height="53.9375" rx="2.5" ry="2.5" style="stroke:#181818;stroke-width:0.5;" width="161.123" x="1985.28" y="87.4369"/><ellipse cx="2000.28" cy="106.4056" fill="#ADD1B2" rx="11" ry="11" style="stroke:#181818;stroke-width:1;"/><path d="M2003.2488,112.0462 Q2002.6706,112.3431 2002.03,112.4837 Q2001.3894,112.64 2000.6863,112.64 Q1998.1863,112.64 1996.8581,110.9994 Q1995.5456,109.3431 1995.5456,106.2181 Q1995.5456,103.0931 1996.8581,101.4369 Q1998.1863,99.7806 2000.6863,99.7806 Q2001.3894,99.7806 2002.03,99.9369 Q2002.6863,100.0931 2003.2488,100.39 L2003.2488,103.1087 Q2002.6238,102.5306 2002.03,102.265 Q2001.4363,101.9837 2000.8113,101.9837 Q1999.4675,101.9837 1998.78,103.0619 Q1998.0925,104.1244 1998.0925,106.2181 Q1998.0925,108.3119 1998.78,109.39 Q1999.4675,110.4525 2000.8113,110.4525 Q2001.4363,110.4525 2002.03,110.1869 Q2002.6238,109.9056 2003.2488,109.3275 L2003.2488,112.0462 Z " fill="#000000"/><text fill="#000000" font-family="sans-serif" font-size="12" font-style="italic" lengthAdjust="spacing" textLength="63.4629" x="2047.1101" y="103.5755">&#171;IAO::ICE&#187;</text><text fill="#000000" font-family="sans-serif" font-size="12" lengthAdjust="spacing" textLength="129.123" x="2014.28" y="117.5443">ExplanationFragment</text><line style="stroke:#181818;stroke-width:0.5;" x1="1986.28" x2="2145.403" y1="125.3744" y2="125.3744"/><line style="stroke:#181818;stroke-width:0.5;" x1="1986.28" x2="2145.403" y1="133.3744" y2="133.3744"/></g><!--class IntelligenceActivation--><g class="entity" data-entity="IntelligenceActivation" data-source-line="56" data-uid="ent0040" id="entity_IntelligenceActivation"><rect fill="#F1F1F1" height="86.5313" rx="2.5" ry="2.5" style="stroke:#181818;stroke-width:0.5;" width="222.6904" x="2335.5" y="226.5269"/><ellipse cx="2377.7624" cy="245.4956" fill="#ADD1B2" rx="11" ry="11" style="stroke:#181818;stroke-width:1;"/><path d="M2380.7311,251.1363 Q2380.153,251.4331 2379.5124,251.5738 Q2378.8717,251.73 2378.1686,251.73 Q2375.6686,251.73 2374.3405,250.0894 Q2373.028,248.4331 2373.028,245.3081 Q2373.028,242.1831 2374.3405,240.5269 Q2375.6686,238.8706 2378.1686,238.8706 Q2378.8717,238.8706 2379.5124,239.0269 Q2380.1686,239.1831 2380.7311,239.48 L2380.7311,242.1988 Q2380.1061,241.6206 2379.5124,241.355 Q2378.9186,241.0738 2378.2936,241.0738 Q2376.9499,241.0738 2376.2624,242.1519 Q2375.5749,243.2144 2375.5749,245.3081 Q2375.5749,247.4019 2376.2624,248.48 Q2376.9499,249.5425 2378.2936,249.5425 Q2378.9186,249.5425 2379.5124,249.2769 Q2380.1061,248.9956 2380.7311,248.4175 L2380.7311,251.1363 Z " fill="#000000"/><text fill="#000000" font-family="sans-serif" font-size="12" font-style="italic" lengthAdjust="spacing" textLength="63.4629" x="2431.1429" y="242.6655">&#171;IAO::ICE&#187;</text><text fill="#000000" font-family="sans-serif" font-size="12" lengthAdjust="spacing" textLength="130.1074" x="2397.8207" y="256.6343">IntelligenceActivation</text><line style="stroke:#181818;stroke-width:0.5;" x1="2336.5" x2="2557.1904" y1="264.4644" y2="264.4644"/><text fill="#000000" font-family="sans-serif" font-size="14" lengthAdjust="spacing" textLength="210.6904" x="2341.5" y="281.4595">+hasActivationScore: decimal</text><text fill="#000000" font-family="sans-serif" font-size="14" lengthAdjust="spacing" textLength="150.4316" x="2341.5" y="297.7564">+hasWeight: decimal</text><line style="stroke:#181818;stroke-width:0.5;" x1="2336.5" x2="2557.1904" y1="305.0581" y2="305.0581"/></g><!--class EvocationProcess--><g class="entity" data-entity="EvocationProcess" data-source-line="62" data-uid="ent0042" id="entity_EvocationProcess"><rect fill="#F1F1F1" height="53.9375" rx="2.5" ry="2.5" style="stroke:#181818;stroke-width:0.5;" width="136.959" x="1660.37" y="406.3569"/><ellipse cx="1675.37" cy="425.3256" fill="#ADD1B2" rx="11" ry="11" style="stroke:#181818;stroke-width:1;"/><path d="M1678.3388,430.9663 Q1677.7606,431.2631 1677.12,431.4038 Q1676.4794,431.56 1675.7763,431.56 Q1673.2763,431.56 1671.9481,429.9194 Q1670.6356,428.2631 1670.6356,425.1381 Q1670.6356,422.0131 1671.9481,420.3569 Q1673.2763,418.7006 1675.7763,418.7006 Q1676.4794,418.7006 1677.12,418.8569 Q1677.7763,419.0131 1678.3388,419.31 L1678.3388,422.0288 Q1677.7138,421.4506 1677.12,421.185 Q1676.5263,420.9038 1675.9013,420.9038 Q1674.5575,420.9038 1673.87,421.9819 Q1673.1825,423.0444 1673.1825,425.1381 Q1673.1825,427.2319 1673.87,428.31 Q1674.5575,429.3725 1675.9013,429.3725 Q1676.5263,429.3725 1677.12,429.1069 Q1677.7138,428.8256 1678.3388,428.2475 L1678.3388,430.9663 Z " fill="#000000"/><text fill="#000000" font-family="sans-serif" font-size="12" font-style="italic" lengthAdjust="spacing" textLength="93.3457" x="1695.1766" y="422.4955">&#171;BFO::Process&#187;</text><text fill="#000000" font-family="sans-serif" font-size="12" lengthAdjust="spacing" textLength="104.959" x="1689.37" y="436.4643">EvocationProcess</text><line style="stroke:#181818;stroke-width:0.5;" x1="1661.37" x2="1796.329" y1="444.2944" y2="444.2944"/><line style="stroke:#181818;stroke-width:0.5;" x1="1661.37" x2="1796.329" y1="452.2944" y2="452.2944"/></g><!--class MIProfileVector--><g class="entity" data-entity="MIProfileVector" data-source-line="65" data-uid="ent0044" id="entity_MIProfileVector"><rect fill="#F1F1F1" height="70.2344" rx="2.5" ry="2.5" style="stroke:#181818;stroke-width:0.5;" width="385.0439" x="641.32" y="79.2969"/><ellipse cx="784.1672" cy="98.2656" fill="#ADD1B2" rx="11" ry="11" style="stroke:#181818;stroke-width:1;"/><path d="M787.1359,103.9063 Q786.5578,104.2031 785.9172,104.3438 Q785.2765,104.5 784.5734,104.5 Q782.0734,104.5 780.7453,102.8594 Q779.4328,101.2031 779.4328,98.0781 Q779.4328,94.9531 780.7453,93.2969 Q782.0734,91.6406 784.5734,91.6406 Q785.2765,91.6406 785.9172,91.7969 Q786.5734,91.9531 787.1359,92.25 L787.1359,94.9688 Q786.5109,94.3906 785.9172,94.125 Q785.3234,93.8438 784.6984,93.8438 Q783.3547,93.8438 782.6672,94.9219 Q781.9797,95.9844 781.9797,98.0781 Q781.9797,100.1719 782.6672,101.25 Q783.3547,102.3125 784.6984,102.3125 Q785.3234,102.3125 785.9172,102.0469 Q786.5109,101.7656 787.1359,101.1875 L787.1359,103.9063 Z " fill="#000000"/><text fill="#000000" font-family="sans-serif" font-size="12" font-style="italic" lengthAdjust="spacing" textLength="63.4629" x="818.3605" y="95.4355">&#171;IAO::ICE&#187;</text><text fill="#000000" font-family="sans-serif" font-size="12" lengthAdjust="spacing" textLength="90.8496" x="804.6672" y="109.4043">MIProfileVector</text><line style="stroke:#181818;stroke-width:0.5;" x1="642.32" x2="1025.3639" y1="117.2344" y2="117.2344"/><line style="stroke:#181818;stroke-width:0.5;" x1="642.32" x2="1025.3639" y1="125.2344" y2="125.2344"/><text fill="#000000" font-family="sans-serif" font-size="14" lengthAdjust="spacing" textLength="373.0439" x="647.32" y="142.2295">+miVector: string  ' vetor percentual 8D (ordem fixa)</text></g><!--class ActivationType--><g class="entity" data-entity="ActivationType" data-source-line="72" data-uid="ent0046" id="entity_ActivationType"><rect fill="#F1F1F1" height="86.5313" rx="2.5" ry="2.5" style="stroke:#181818;stroke-width:0.5;" width="121.7188" x="2017.99" y="390.0569"/><ellipse cx="2032.99" cy="409.0256" fill="#EB937F" rx="11" ry="11" style="stroke:#181818;stroke-width:1;"/><path d="M2037.0994,415.0256 L2029.3806,415.0256 L2029.3806,402.635 L2037.0994,402.635 L2037.0994,404.7913 L2031.8338,404.7913 L2031.8338,407.4631 L2036.5994,407.4631 L2036.5994,409.6194 L2031.8338,409.6194 L2031.8338,412.8694 L2037.0994,412.8694 L2037.0994,415.0256 Z " fill="#000000"/><text fill="#000000" font-family="sans-serif" font-size="12" font-style="italic" lengthAdjust="spacing" textLength="81.0234" x="2051.3377" y="406.1955">&#171;vocabulary&#187;</text><text fill="#000000" font-family="sans-serif" font-size="12" lengthAdjust="spacing" textLength="89.7188" x="2046.99" y="420.1643">ActivationType</text><line style="stroke:#181818;stroke-width:0.5;" x1="2018.99" x2="2138.7088" y1="427.9944" y2="427.9944"/><text fill="#000000" font-family="sans-serif" font-size="14" lengthAdjust="spacing" textLength="54.3457" x="2023.99" y="444.9895">Primary</text><text fill="#000000" font-family="sans-serif" font-size="14" lengthAdjust="spacing" textLength="74.1426" x="2023.99" y="461.2864">Secondary</text><line style="stroke:#181818;stroke-width:0.5;" x1="2018.99" x2="2138.7088" y1="468.5881" y2="468.5881"/></g><g class="entity" data-entity="GMN56" data-source-line="108" data-uid="ent0057" id="entity_GMN56"><path d="M3006.93,86.7069 L3006.93,142.1053 L3432.7581,142.1053 L3432.7581,96.7069 L3422.7581,86.7069 L3006.93,86.7069" fill="#FEFFDD" style="stroke:#181818;stroke-width:0.5;"/><path d="M3422.7581,86.7069 L3422.7581,96.7069 L3432.7581,96.7069 L3422.7581,86.7069" fill="#FEFFDD" style="stroke:#181818;stroke-width:1;"/><text fill="#000000" font-family="sans-serif" font-size="13" lengthAdjust="spacing" textLength="47.6201" x="3012.93" y="103.7738">SHACL:</text><text fill="#000000" font-family="sans-serif" font-size="13" lengthAdjust="spacing" textLength="367.7324" x="3012.93" y="118.9066">- Deve ter iao:is about -&gt; IntelligenceDisposition (min 1)</text><text fill="#000000" font-family="sans-serif" font-size="13" lengthAdjust="spacing" textLength="404.8281" x="3012.93" y="134.0394">- Deve ter hasActivationType in {Primary, Secondary} (min 1)</text></g><g class="entity" data-entity="GMN59" data-source-line="114" data-uid="ent0060" id="entity_GMN59"><path d="M2589.4,94.2769 L2589.4,110.4069 L2146.84,114.4069 L2589.4,118.4069 L2589.4,134.5425 A0,0 0 0 0 2589.4,134.5425 L2972.2989,134.5425 A0,0 0 0 0 2972.2989,134.5425 L2972.2989,104.2769 L2962.2989,94.2769 L2589.4,94.2769 A0,0 0 0 0 2589.4,94.2769" fill="#FEFFDD" style="stroke:#181818;stroke-width:0.5;"/><path d="M2962.2989,94.2769 L2962.2989,104.2769 L2972.2989,104.2769 L2962.2989,94.2769" fill="#FEFFDD" style="stroke:#181818;stroke-width:0.5;"/><text fill="#000000" font-family="sans-serif" font-size="13" lengthAdjust="spacing" textLength="47.6201" x="2595.4" y="111.3438">SHACL:</text><text fill="#000000" font-family="sans-serif" font-size="13" lengthAdjust="spacing" textLength="361.8989" x="2595.4" y="126.4766">- Deve possuir ao menos usesElement ou hasActivation</text></g><g class="entity" data-entity="GMN62" data-source-line="119" data-uid="ent0063" id="entity_GMN62"><path d="M2593.48,242.0969 L2593.48,297.4953 L2968.2031,297.4953 L2968.2031,252.0969 L2958.2031,242.0969 L2593.48,242.0969" fill="#FEFFDD" style="stroke:#181818;stroke-width:0.5;"/><path d="M2958.2031,242.0969 L2958.2031,252.0969 L2968.2031,252.0969 L2958.2031,242.0969" fill="#FEFFDD" style="stroke:#181818;stroke-width:1;"/><text fill="#000000" font-family="sans-serif" font-size="13" lengthAdjust="spacing" textLength="47.6201" x="2599.48" y="259.1638">SHACL:</text><text fill="#000000" font-family="sans-serif" font-size="13" lengthAdjust="spacing" textLength="255.3726" x="2599.48" y="274.2966">- Instancia&#231;&#227;o direta n&#227;o recomendada</text><text fill="#000000" font-family="sans-serif" font-size="13" lengthAdjust="spacing" textLength="353.7231" x="2599.48" y="289.4294">- Prefira Keyword / ContextObject / DiscursiveStrategy</text></g><!--link IntelligenceDisposition to BFO_Disposition--><g class="link" data-entity-1="IntelligenceDisposition" data-entity-2="BFO_Disposition" data-source-line="18" data-uid="lnk9" id="link_IntelligenceDisposition_BFO_Disposition"><path codeLine="18" d="M1270.64,434.1169 C1046.03,434.6169 437.27,442.9869 252.85,517.5869 C229.92,526.8669 221.2979,532.179 205.9879,547.489" fill="none" id="IntelligenceDisposition-to-BFO_Disposition" style="stroke:#181818;stroke-width:1;"/><polygon fill="none" points="193.26,560.2169,210.2306,551.7316,201.7453,543.2463,193.26,560.2169" style="stroke:#181818;stroke-width:1;"/></g><!--link Intelligence to BFO_Disposition--><g class="link" data-entity-1="Intelligence" data-entity-2="BFO_Disposition" data-source-line="19" data-uid="lnk10" id="link_Intelligence_BFO_Disposition"><path codeLine="19" d="M464.84,115.1669 C354.03,116.4569 147.88,126.1969 101.85,179.5269 C6,290.5769 49.92,372.3969 101.85,509.5869 C109.23,529.0969 111.1489,534.3251 125.0889,547.8451" fill="none" id="Intelligence-to-BFO_Disposition" style="stroke:#181818;stroke-width:1;"/><polygon fill="none" points="138.01,560.3769,129.2662,543.5381,120.9117,552.1521,138.01,560.3769" style="stroke:#181818;stroke-width:1;"/></g><!--link LinguisticIntelligence to IntelligenceDisposition--><g class="link" data-entity-1="LinguisticIntelligence" data-entity-2="IntelligenceDisposition" data-source-line="31" data-uid="lnk19" id="link_LinguisticIntelligence_IntelligenceDisposition"><path codeLine="31" d="M1354.85,294.2769 C1354.85,324.0269 1354.85,357.1469 1354.85,388.1269" fill="none" id="LinguisticIntelligence-to-IntelligenceDisposition" style="stroke:#181818;stroke-width:1;"/><polygon fill="none" points="1354.85,406.1269,1360.85,388.1269,1348.85,388.1269,1354.85,406.1269" style="stroke:#181818;stroke-width:1;"/></g><!--link LogicalMathematicalIntelligence to IntelligenceDisposition--><g class="link" data-entity-1="LogicalMathematicalIntelligence" data-entity-2="IntelligenceDisposition" data-source-line="32" data-uid="lnk20" id="link_LogicalMathematicalIntelligence_IntelligenceDisposition"><path codeLine="32" d="M1547.63,293.9769 C1527.02,308.0369 1500.31,326.4069 1476.85,343.0569 C1447.53,363.8669 1429.1249,377.2675 1404.8949,395.1775" fill="none" id="LogicalMathematicalIntelligence-to-IntelligenceDisposition" style="stroke:#181818;stroke-width:1;"/><polygon fill="none" points="1390.42,405.8769,1408.4614,400.0025,1401.3285,390.3525,1390.42,405.8769" style="stroke:#181818;stroke-width:1;"/></g><!--link SpatialIntelligence to IntelligenceDisposition--><g class="link" data-entity-1="SpatialIntelligence" data-entity-2="IntelligenceDisposition" data-source-line="33" data-uid="lnk21" id="link_SpatialIntelligence_IntelligenceDisposition"><path codeLine="33" d="M1757.43,294.2469 C1743.22,301.1369 1727.16,308.1469 1711.85,313.0569 C1640.04,336.1069 1616.7,320.1669 1544.85,343.0569 C1494.15,359.2169 1455.3718,377.5241 1417.7518,397.5341" fill="none" id="SpatialIntelligence-to-IntelligenceDisposition" style="stroke:#181818;stroke-width:1;"/><polygon fill="none" points="1401.86,405.9869,1420.5694,402.8313,1414.9342,392.2368,1401.86,405.9869" style="stroke:#181818;stroke-width:1;"/></g><!--link BodilyKinestheticIntelligence to IntelligenceDisposition--><g class="link" data-entity-1="BodilyKinestheticIntelligence" data-entity-2="IntelligenceDisposition" data-source-line="34" data-uid="lnk22" id="link_BodilyKinestheticIntelligence_IntelligenceDisposition"><path codeLine="34" d="M1952.38,294.1969 C1932.83,301.3069 1910.66,308.4469 1889.85,313.0569 C1756.43,342.6369 1716.75,311.2769 1583.85,343.0569 C1551.37,350.8269 1489.6273,375.5144 1433.6273,398.9244" fill="none" id="BodilyKinestheticIntelligence-to-IntelligenceDisposition" style="stroke:#181818;stroke-width:1;"/><polygon fill="none" points="1417.02,405.8669,1435.9414,404.4602,1431.3132,393.3887,1417.02,405.8669" style="stroke:#181818;stroke-width:1;"/></g><!--link MusicalIntelligence to IntelligenceDisposition--><g class="link" data-entity-1="MusicalIntelligence" data-entity-2="IntelligenceDisposition" data-source-line="35" data-uid="lnk23" id="link_MusicalIntelligence_IntelligenceDisposition"><path codeLine="35" d="M581.79,294.1369 C596.42,301.1069 613.03,308.1869 628.85,313.0569 C854.68,382.6269 1115.3187,412.3554 1252.4687,424.3754" fill="none" id="MusicalIntelligence-to-IntelligenceDisposition" style="stroke:#181818;stroke-width:1;"/><polygon fill="none" points="1270.4,425.9469,1252.9926,418.3983,1251.9449,430.3524,1270.4,425.9469" style="stroke:#181818;stroke-width:1;"/></g><!--link InterpersonalIntelligence to IntelligenceDisposition--><g class="link" data-entity-1="InterpersonalIntelligence" data-entity-2="IntelligenceDisposition" data-source-line="36" data-uid="lnk24" id="link_InterpersonalIntelligence_IntelligenceDisposition"><path codeLine="36" d="M792.89,294.2469 C809.74,300.8369 828.4,307.6569 845.85,313.0569 C993.03,358.5969 1151.1632,392.6785 1252.9132,412.8385" fill="none" id="InterpersonalIntelligence-to-IntelligenceDisposition" style="stroke:#181818;stroke-width:1;"/><polygon fill="none" points="1270.57,416.3369,1254.0794,406.9529,1251.7471,418.7241,1270.57,416.3369" style="stroke:#181818;stroke-width:1;"/></g><!--link IntrapersonalIntelligence to IntelligenceDisposition--><g class="link" data-entity-1="IntrapersonalIntelligence" data-entity-2="IntelligenceDisposition" data-source-line="37" data-uid="lnk25" id="link_IntrapersonalIntelligence_IntelligenceDisposition"><path codeLine="37" d="M1012.15,294.2769 C1085.9,323.9869 1195.8232,368.2726 1272.7732,399.2626" fill="none" id="IntrapersonalIntelligence-to-IntelligenceDisposition" style="stroke:#181818;stroke-width:1;"/><polygon fill="none" points="1289.47,405.9869,1275.0146,393.697,1270.5317,404.8282,1289.47,405.9869" style="stroke:#181818;stroke-width:1;"/></g><!--link NaturalistIntelligence to IntelligenceDisposition--><g class="link" data-entity-1="NaturalistIntelligence" data-entity-2="IntelligenceDisposition" data-source-line="38" data-uid="lnk26" id="link_NaturalistIntelligence_IntelligenceDisposition"><path codeLine="38" d="M1188.2,294.2769 C1224.12,324.0269 1271.9581,363.6644 1309.3581,394.6444" fill="none" id="NaturalistIntelligence-to-IntelligenceDisposition" style="stroke:#181818;stroke-width:1;"/><polygon fill="none" points="1323.22,406.1269,1313.1855,390.0238,1305.5306,399.2651,1323.22,406.1269" style="stroke:#181818;stroke-width:1;"/></g><!--link Keyword to ExplanationElement--><g class="link" data-entity-1="Keyword" data-entity-2="ExplanationElement" data-source-line="45" data-uid="lnk31" id="link_Keyword_ExplanationElement"><path codeLine="45" d="M1740.13,141.7169 C1750.36,160.4169 1766.82,184.2969 1788.85,196.5269 C1855.35,233.4569 2056.24,207.3269 2129.85,226.5269 C2144.39,230.3169 2143.0787,228.8276 2156.8287,234.9776" fill="none" id="Keyword-to-ExplanationElement" style="stroke:#181818;stroke-width:1;"/><polygon fill="none" points="2173.26,242.3269,2159.2784,229.5005,2154.3789,240.4547,2173.26,242.3269" style="stroke:#181818;stroke-width:1;"/></g><!--link ContextObject to ExplanationElement--><g class="link" data-entity-1="ContextObject" data-entity-2="ExplanationElement" data-source-line="46" data-uid="lnk32" id="link_ContextObject_ExplanationElement"><path codeLine="46" d="M1344.42,128.5669 C1374.24,135.0569 1410.91,142.8969 1443.85,149.5269 C1554.68,171.8369 1581.7,182.1769 1693.85,196.5269 C1886.51,221.1769 1941.44,179.2969 2129.85,226.5269 C2144.6,230.2269 2143.4983,228.7561 2157.3783,234.9861" fill="none" id="ContextObject-to-ExplanationElement" style="stroke:#181818;stroke-width:1;"/><polygon fill="none" points="2173.8,242.3569,2159.8353,229.5122,2154.9214,240.4599,2173.8,242.3569" style="stroke:#181818;stroke-width:1;"/></g><!--link DiscursiveStrategy to ExplanationElement--><g class="link" data-entity-1="DiscursiveStrategy" data-entity-2="ExplanationElement" data-source-line="47" data-uid="lnk33" id="link_DiscursiveStrategy_ExplanationElement"><path codeLine="47" d="M1593.21,141.7169 C1637.85,160.2869 1701.02,183.9969 1758.85,196.5269 C1920.52,231.5569 1969.63,185.3369 2129.85,226.5269 C2144.58,230.3169 2143.4683,228.8761 2157.3483,235.1061" fill="none" id="DiscursiveStrategy-to-ExplanationElement" style="stroke:#181818;stroke-width:1;"/><polygon fill="none" points="2173.77,242.4769,2159.8053,229.6322,2154.8914,240.5799,2173.77,242.4769" style="stroke:#181818;stroke-width:1;"/></g><!--link ExplanationElement to IAO_ICE--><g class="link" data-entity-1="ExplanationElement" data-entity-2="IAO_ICE" data-source-line="48" data-uid="lnk34" id="link_ExplanationElement_IAO_ICE"><path codeLine="48" d="M2225.4,297.0469 C2226.69,346.5469 2221.39,452.9769 2156.85,500.5869 C2119.83,527.8969 545.31,505.8069 500.85,517.5869 C468.94,526.0369 451.4622,534.5903 427.7522,550.3103" fill="none" id="ExplanationElement-to-IAO_ICE" style="stroke:#181818;stroke-width:1;"/><polygon fill="none" points="412.75,560.2569,431.0677,555.311,424.4366,545.3095,412.75,560.2569" style="stroke:#181818;stroke-width:1;"/></g><!--link Keyword to IAO_ICE--><g class="link" data-entity-1="Keyword" data-entity-2="IAO_ICE" data-source-line="49" data-uid="lnk35" id="link_Keyword_IAO_ICE"><path codeLine="49" d="M1681.73,133.7469 C1663.94,139.9769 1643.23,146.1869 1623.85,149.5269 C1556.05,161.2069 434.44,130.8269 385.85,179.5269 C281.87,283.7169 335.0811,470.783 360.8011,543.273" fill="none" id="Keyword-to-IAO_ICE" style="stroke:#181818;stroke-width:1;"/><polygon fill="none" points="366.82,560.2369,366.4557,541.2667,355.1465,545.2793,366.82,560.2369" style="stroke:#181818;stroke-width:1;"/></g><!--link ContextObject to IAO_ICE--><g class="link" data-entity-1="ContextObject" data-entity-2="IAO_ICE" data-source-line="50" data-uid="lnk36" id="link_ContextObject_IAO_ICE"><path codeLine="50" d="M1225.62,125.5369 C1176.95,133.4269 1106.14,143.9669 1043.85,149.5269 C999.55,153.4869 274.7,147.4969 243.85,179.5269 C142.08,285.1769 170.56,382.5069 243.85,509.5869 C246.34,513.9269 275.8358,530.8823 312.8658,551.4023" fill="none" id="ContextObject-to-IAO_ICE" style="stroke:#181818;stroke-width:1;"/><polygon fill="none" points="328.61,560.1269,315.774,546.1542,309.9576,556.6504,328.61,560.1269" style="stroke:#181818;stroke-width:1;"/></g><!--link DiscursiveStrategy to IAO_ICE--><g class="link" data-entity-1="DiscursiveStrategy" data-entity-2="IAO_ICE" data-source-line="51" data-uid="lnk37" id="link_DiscursiveStrategy_IAO_ICE"><path codeLine="51" d="M1461.03,132.6569 C1430.57,139.1369 1394.67,145.8269 1361.85,149.5269 C1304.02,156.0469 355.4,137.7969 314.85,179.5269 C212.61,284.7269 266.06,371.2469 314.85,509.5869 C321.58,528.6869 322.9815,533.3835 335.7915,547.0735" fill="none" id="DiscursiveStrategy-to-IAO_ICE" style="stroke:#181818;stroke-width:1;"/><polygon fill="none" points="348.09,560.2169,340.1726,542.974,331.4104,551.173,348.09,560.2169" style="stroke:#181818;stroke-width:1;"/></g><!--link ExplanationFragment to IAO_ICE--><g class="link" data-entity-1="ExplanationFragment" data-entity-2="IAO_ICE" data-source-line="54" data-uid="lnk39" id="link_ExplanationFragment_IAO_ICE"><path codeLine="54" d="M1985.08,126.8569 C1930.36,134.2669 1856.37,143.5969 1790.85,149.5269 C1641.88,163.0169 559.5,128.1269 446.85,226.5269 C396.49,270.5169 382.5332,466.6286 378.8232,542.1486" fill="none" id="ExplanationFragment-to-IAO_ICE" style="stroke:#181818;stroke-width:1;"/><polygon fill="none" points="377.94,560.1269,384.816,542.443,372.8304,541.8542,377.94,560.1269" style="stroke:#181818;stroke-width:1;"/></g><!--link IntelligenceActivation to IAO_ICE--><g class="link" data-entity-1="IntelligenceActivation" data-entity-2="IAO_ICE" data-source-line="60" data-uid="lnk41" id="link_IntelligenceActivation_IAO_ICE"><path codeLine="60" d="M2418.34,313.4169 C2379.24,367.8169 2303.42,459.7569 2212.85,500.5869 C2161.26,523.8469 2142.39,507.4469 2085.85,509.5869 C2041.85,511.2569 543.44,506.4269 500.85,517.5869 C468.92,525.9569 451.4393,534.5159 427.7293,550.2459" fill="none" id="IntelligenceActivation-to-IAO_ICE" style="stroke:#181818;stroke-width:1;"/><polygon fill="none" points="412.73,560.1969,431.0463,555.2456,424.4123,545.2461,412.73,560.1969" style="stroke:#181818;stroke-width:1;"/></g><!--link EvocationProcess to BFO_Process--><g class="link" data-entity-1="EvocationProcess" data-entity-2="BFO_Process" data-source-line="63" data-uid="lnk43" id="link_EvocationProcess_BFO_Process"><path codeLine="63" d="M1660.1,453.9369 C1605.44,468.8369 1526.81,488.7269 1456.85,500.5869 C1146.68,553.1969 787.3355,575.6488 647.4555,582.9488" fill="none" id="EvocationProcess-to-BFO_Process" style="stroke:#181818;stroke-width:1;"/><polygon fill="none" points="629.48,583.8869,647.7682,588.9406,647.1428,576.9569,629.48,583.8869" style="stroke:#181818;stroke-width:1;"/></g><!--link MIProfileVector to IAO_ICE--><g class="link" data-entity-1="MIProfileVector" data-entity-2="IAO_ICE" data-source-line="68" data-uid="lnk45" id="link_MIProfileVector_IAO_ICE"><path codeLine="68" d="M640.84,147.4869 C635.12,148.2069 629.44,148.8869 623.85,149.5269 C573.95,155.2269 207.16,142.8569 172.85,179.5269 C122.73,233.0869 123.63,455.2069 172.85,509.5869 C184.83,522.8369 235.8,512.2469 252.85,517.5869 C283.64,527.2369 300.2226,535.3741 323.8826,550.4941" fill="none" id="MIProfileVector-to-IAO_ICE" style="stroke:#181818;stroke-width:1;"/><polygon fill="none" points="339.05,560.1869,327.1135,545.4383,320.6517,555.5499,339.05,560.1869" style="stroke:#181818;stroke-width:1;"/></g><!--link ExplanationFragment to ExplanationElement--><g class="link" data-entity-1="ExplanationFragment" data-entity-2="ExplanationElement" data-source-line="80" data-uid="lnk47" id="link_ExplanationFragment_ExplanationElement"><path codeLine="80" d="M1984.82,116.5269 C1890.19,120.5469 1753.14,136.4869 1807.85,196.5269 C1856.25,249.6469 2060.35,208.2069 2129.85,226.5269 C2144.38,230.3569 2154.0229,233.7771 2167.7729,239.9271" fill="none" id="ExplanationFragment-to-ExplanationElement" style="stroke:#181818;stroke-width:1;"/><polygon fill="#181818" points="2173.25,242.3769,2166.6675,235.0508,2168.6857,240.3354,2163.4012,242.3536,2173.25,242.3769" style="stroke:#181818;stroke-width:1;"/><text fill="#000000" font-family="sans-serif" font-size="13" lengthAdjust="spacing" textLength="83.605" x="1808.85" y="192.5938">usesElement</text><text fill="#000000" font-family="sans-serif" font-size="13" lengthAdjust="spacing" textLength="8.271" x="1968.9946" y="113.104">1</text><text fill="#000000" font-family="sans-serif" font-size="13" lengthAdjust="spacing" textLength="23.0356" x="2136.67" y="231.8198">0..*</text></g><!--link ExplanationElement to IntelligenceDisposition--><g class="link" data-entity-1="ExplanationElement" data-entity-2="IntelligenceDisposition" data-source-line="83" data-uid="lnk48" id="link_ExplanationElement_IntelligenceDisposition"><path codeLine="83" d="M2174.31,297.0769 C2160.3,303.3969 2144.79,309.3769 2129.85,313.0569 C1918.01,365.3169 1854.41,303.4969 1639.85,343.0569 C1599.82,350.4369 1507.3856,380.42 1437.4756,403.99" fill="none" id="ExplanationElement-to-IntelligenceDisposition" style="stroke:#181818;stroke-width:1;"/><polygon fill="#181818" points="1431.79,405.9069,1441.5963,406.8219,1436.528,404.3095,1439.0404,399.2412,1431.79,405.9069" style="stroke:#181818;stroke-width:1;"/><text fill="#000000" font-family="sans-serif" font-size="13" lengthAdjust="spacing" textLength="121.583" x="1640.85" y="356.1238">evokesIntelligence</text></g><!--reverse link ExplanationFragment to IntelligenceActivation--><g class="link" data-entity-1="ExplanationFragment" data-entity-2="IntelligenceActivation" data-source-line="86" data-uid="lnk49" id="link_ExplanationFragment_IntelligenceActivation"><path codeLine="86" d="M1973.5945,139.6857 C1933.1045,153.6357 1908.69,170.4169 1932.85,196.5269 C1961.98,228.0269 2275.77,218.1169 2317.85,226.5269 C2323.51,227.6569 2329.27,228.9569 2335.06,230.3869" fill="none" id="ExplanationFragment-backto-IntelligenceActivation" style="stroke:#181818;stroke-width:1;"/><polygon fill="none" points="1984.94,135.7769,1977.9643,133.9495,1973.5945,139.6857,1980.5702,141.5131,1984.94,135.7769" style="stroke:#181818;stroke-width:1;"/><text fill="#000000" font-family="sans-serif" font-size="13" lengthAdjust="spacing" textLength="88.2896" x="1933.85" y="192.5938">hasActivation</text><text fill="#000000" font-family="sans-serif" font-size="13" lengthAdjust="spacing" textLength="8.271" x="1969.1256" y="134.1286">1</text><text fill="#000000" font-family="sans-serif" font-size="13" lengthAdjust="spacing" textLength="23.0356" x="2304.5484" y="224.5995">0..*</text></g><!--reverse link ExplanationFragment to IntelligenceActivation--><g class="link" data-entity-1="ExplanationFragment" data-entity-2="IntelligenceActivation" data-source-line="89" data-uid="lnk50" id="link_ExplanationFragment_IntelligenceActivation"><path codeLine="89" d="M2053.386,153.1974 C2048.836,170.8574 2049.83,181.8869 2062.85,196.5269 C2100.76,239.1669 2262.13,214.2469 2317.85,226.5269 C2323.6,227.7969 2329.46,229.2169 2335.35,230.7569" fill="none" id="ExplanationFragment-backto-IntelligenceActivation-1" style="stroke:#181818;stroke-width:1;"/><polygon fill="none" points="2056.38,141.5769,2051.0095,146.3891,2053.386,153.1974,2058.7565,148.3851,2056.38,141.5769" style="stroke:#181818;stroke-width:1;"/><text fill="#000000" font-family="sans-serif" font-size="13" lengthAdjust="spacing" textLength="138.7534" x="2063.85" y="192.5938">hasPrimaryActivation</text><text fill="#000000" font-family="sans-serif" font-size="13" lengthAdjust="spacing" textLength="24.8066" x="2027.7735" y="161.2426">0..1</text><text fill="#000000" font-family="sans-serif" font-size="13" lengthAdjust="spacing" textLength="8.271" x="2319.2388" y="240.6111">1</text></g><!--reverse link ExplanationFragment to IntelligenceActivation--><g class="link" data-entity-1="ExplanationFragment" data-entity-2="IntelligenceActivation" data-source-line="92" data-uid="lnk51" id="link_ExplanationFragment_IntelligenceActivation"><path codeLine="92" d="M2135.17,146.6902 C2160.59,158.2102 2179.76,166.9769 2206.85,179.5269 C2222.9,186.9669 2226.49,189.7869 2242.85,196.5269 C2272.46,208.7269 2304.98,220.8169 2335.17,231.5169" fill="none" id="ExplanationFragment-backto-IntelligenceActivation-2" style="stroke:#181818;stroke-width:1;"/><polygon fill="none" points="2124.24,141.7369,2128.0539,147.8569,2135.17,146.6902,2131.3561,140.5702,2124.24,141.7369" style="stroke:#181818;stroke-width:1;"/><text fill="#000000" font-family="sans-serif" font-size="13" lengthAdjust="spacing" textLength="157.1362" x="2243.85" y="192.5938">hasSecondaryActivation</text><text fill="#000000" font-family="sans-serif" font-size="13" lengthAdjust="spacing" textLength="23.0356" x="2111.5029" y="161.4376">0..*</text><text fill="#000000" font-family="sans-serif" font-size="13" lengthAdjust="spacing" textLength="23.0356" x="2307.0007" y="215.7281">0..*</text></g><!--link IntelligenceActivation to ExplanationFragment--><g class="link" data-entity-1="IntelligenceActivation" data-entity-2="ExplanationFragment" data-source-line="95" data-uid="lnk52" id="link_IntelligenceActivation_ExplanationFragment"><path codeLine="95" d="M2436.47,226.0769 C2430.28,209.1869 2420.63,191.0769 2405.85,179.5269 C2366.38,148.6869 2240.0505,131.4115 2152.5905,122.7015" fill="none" id="IntelligenceActivation-to-ExplanationFragment" style="stroke:#181818;stroke-width:1;"/><polygon fill="#181818" points="2146.62,122.1069,2155.1793,126.9791,2151.5954,122.6024,2155.9721,119.0184,2146.62,122.1069" style="stroke:#181818;stroke-width:1;"/><text fill="#000000" font-family="sans-serif" font-size="13" lengthAdjust="spacing" textLength="111.8584" x="2420.85" y="192.5938">isAboutFragment</text></g><!--link IntelligenceActivation to IntelligenceDisposition--><g class="link" data-entity-1="IntelligenceActivation" data-entity-2="IntelligenceDisposition" data-source-line="98" data-uid="lnk53" id="link_IntelligenceActivation_IntelligenceDisposition"><path codeLine="98" d="M2335.06,309.2169 C2329.27,310.6469 2323.51,311.9369 2317.85,313.0569 C2141.22,348.0069 2092.68,322.1769 1913.85,343.0569 C1744.73,362.8069 1554.3932,395.6332 1445.2032,415.4932" fill="none" id="IntelligenceActivation-to-IntelligenceDisposition" style="stroke:#181818;stroke-width:1;"/><polygon fill="#181818" points="1439.3,416.5669,1448.8705,418.8918,1444.2193,415.6721,1447.4389,411.0209,1439.3,416.5669" style="stroke:#181818;stroke-width:1;"/><text fill="#000000" font-family="sans-serif" font-size="13" lengthAdjust="spacing" textLength="75.937" x="1914.85" y="356.1238">iao:is about</text></g><!--link IntelligenceActivation to EvocationProcess--><g class="link" data-entity-1="IntelligenceActivation" data-entity-2="EvocationProcess" data-source-line="101" data-uid="lnk54" id="link_IntelligenceActivation_EvocationProcess"><path codeLine="101" d="M2335.34,308.7869 C2329.45,310.3369 2323.6,311.7669 2317.85,313.0569 C2212.52,336.6369 2182.89,322.9369 2076.85,343.0569 C1978.8,361.6569 1873.1367,390.2199 1803.3567,410.2699" fill="none" id="IntelligenceActivation-to-EvocationProcess" style="stroke:#181818;stroke-width:1;"/><polygon fill="#181818" points="1797.59,411.9269,1807.3446,413.2859,1802.3956,410.5461,1805.1354,405.597,1797.59,411.9269" style="stroke:#181818;stroke-width:1;"/><text fill="#000000" font-family="sans-serif" font-size="13" lengthAdjust="spacing" textLength="102.1401" x="2077.85" y="356.1238">denotesProcess</text></g><!--link IntelligenceActivation to ActivationType--><g class="link" data-entity-1="IntelligenceActivation" data-entity-2="ActivationType" data-source-line="104" data-uid="lnk55" id="link_IntelligenceActivation_ActivationType"><path codeLine="104" d="M2335.34,307.4069 C2329.43,309.3269 2323.57,311.2169 2317.85,313.0569 C2275.7,326.6169 2263.09,324.5869 2222.85,343.0569 C2194.51,356.0669 2169.99,370.3514 2145.08,386.4414" fill="none" id="IntelligenceActivation-to-ActivationType" style="stroke:#181818;stroke-width:1;"/><polygon fill="#181818" points="2140.04,389.6969,2149.7704,388.1737,2144.24,386.984,2145.4297,381.4536,2140.04,389.6969" style="stroke:#181818;stroke-width:1;"/><text fill="#000000" font-family="sans-serif" font-size="13" lengthAdjust="spacing" textLength="120.1738" x="2223.85" y="356.1238">hasActivationType</text></g><!--link GMN56 to IntelligenceActivation--><g class="link" data-entity-1="GMN56" data-entity-2="IntelligenceActivation" data-source-line="108" data-uid="lnk58" id="link_GMN56_IntelligenceActivation"><path d="M3045.32,142.5869 C2885.98,167.9369 2662.48,204.9769 2575.85,226.5269 C2570.13,227.9469 2564.3,229.4969 2558.43,231.1269" fill="none" id="GMN56-IntelligenceActivation" style="stroke:#181818;stroke-width:1;stroke-dasharray:7,7;"/></g><!--link ExplanationElement to GMN62--><g class="link" data-entity-1="ExplanationElement" data-entity-2="GMN62" data-source-line="119" data-uid="lnk64" id="link_ExplanationElement_GMN62"><path d="M2250.33,242.7069 C2271.32,223.3069 2302.49,198.7769 2335.35,188.0269 C2470.8,143.6869 2637.77,203.1169 2723.72,241.6069" fill="none" id="ExplanationElement-GMN62" style="stroke:#181818;stroke-width:1;stroke-dasharray:7,7;"/></g><!--SRC=[ZLV1RXit4BthAmQwM4egEywfsAG275b6XLYn0JdfCQ2ubCnwHMv9hcB5DT2Fw0y4EHGja5FHIw_watv9XzpLxcf5IlR5AtA6y-Pn-3Wqt2GCheIHun7yzzlly7vy2J63GKAqPXewIwxNNoKmRLHcCaKIY2NSt5p2J2h1A8zbjzNITroaH945f8JUaJcRc1KkgnWrHCmJLZEWTk4pOnIVPeQDg1GJ_fd1YwR9XHJ6pPo-RBMEu8VD7rmJAWsp68rC9NJUN5p12OpEhhgLKQk00UttQSgKoo-HSsuJKcp6rFelGJdfjk6X1NayQED2KNIj96LQju5em86FnMzu_Hf_zVlmyDXmEESwbPeRBaNfL1lpEYBOA1e9P711hD40SsN238NXPkLMGOkFey4GlV4hztxSfk7T-b-QCBdPkWxDDynBGc4pa8hb6PCfRYUXfW0qml19mkTCK9O3tifh6ttTU2THhr_8ezVxjT_ags7kjq6Z8nZgbD7rjncdo5VdPZJkklhLsJIdmbP887APooKNyunhmsdTifh6ag4a6HDpo-nEuRVNRfBYP63kZOnvidhB1PwWMnQADCvqS7KxgB2AjHHX2qNsMhmZxknYgblJEE-d8ESzJDy1PWwvUmWxvBANnqFE7deFkGHPVuAZVpCEEVhtQB-NEmae5BhSwU5zcX3XP6MOi0NAIYuYA3Y3uVP9VijMdwIAW_DEbkxDrVHdrF6W5SAXcT9yYQAlY67pbSTq4yebimiHBRQ3XUqyuSB67Z9oEdDvRGAhXZregiaGX8s5Royk59a7DiDdvL-lNWLdrF0bAPItlYHQ0po_9Rgoc51K_WW5aV85IKg3dnYVtvhwU5EjQq426IubTVDRzsHvZPOfDirAMIy6gXN78noQyOHzGEQbyYQtuFba17YDeNxPGx1arXhF7KN-CcnJlZ-73kuiMy2CtvDkaLrp-MPQH_01eKwpPFr5SUcw39ww_yHIiVu3co5drX44PD5M45Z_2Tc2G77pF8UNm4NCb-jlSIRrAo2_P1nuajbR5zidAXVOKOdCjalAUIdssK5qWnNhDwlKNiZB719HgvA3QuLRfbRkUyAmYuhpNpjz0gQRAivY4cFpum8ZH8dD3wRo3mvLxS8HPDX05ESayfUbzvpvBDkdRUIs3-qNnyVFshw36DN3MSniAU-OhfTVv3t0OJNq7lUWEIBO3Mc1R9sT2EhP-mz7a07PwsqO21ohQ3jQ4RxOtPfTPvPXnsglb6u4Y_MN-sCuXHGBU1FFZm5ZRs2SxiUm4xA0KXPNdHARqjEYFtio2Pv05WBNPrEPcSsY4TGrgLy12CfMtrl9KNDX5ul8Y6liZd6y6IXKH1qvLNnEpFflgnUMaycFPuFBxZv0uOAi8x28OYQa8P3cAkbqY5arS3hKXDXKsRsSD1KvocCnNIfouo1OBMf6R2ZL5XUluA6egU_AhNtSIqjZjMWtVkC9XDHeImckRjzIt8eST51W3SkARQZfcytElXb1paBd67Al23zwSCwMQ8-ln_gcx2s51HTmsjrstia1RuQAcKgx7qjt9cAmM5ivOcKlQOlPKyOUm8X6Prm1aO0MKjTL5cJMa9idnAgwgLgeaT3uiizlaQzObbmnB5DXl_7HBz41zu8uqsjyS7EyvJQTracZkJhnz5Cbhly1]--></g></svg>