<svg xmlns="http://www.w3.org/2000/svg" xmlns:xlink="http://www.w3.org/1999/xlink" contentStyleType="text/css" data-diagram-type="CLASS" height="526px" preserveAspectRatio="none" style="width:1036px;height:526px;background:#FFFFFF;" version="1.1" viewBox="0 0 1036 526" width="1036px" zoomAndPan="magnify"><defs/><g><!--class ActivationType--><g class="entity" data-entity="ActivationType" data-source-line="10" data-uid="ent0002" id="entity_ActivationType"><rect fill="#F1F1F1" height="72.5938" rx="2.5" ry="2.5" style="stroke:#181818;stroke-width:0.5;" width="136.6719" x="893.03" y="12.54"/><ellipse cx="908.03" cy="28.54" fill="#EB937F" rx="11" ry="11" style="stroke:#181818;stroke-width:1;"/><path d="M912.1394,34.54 L904.4206,34.54 L904.4206,22.1494 L912.1394,22.1494 L912.1394,24.3056 L906.8738,24.3056 L906.8738,26.9775 L911.6394,26.9775 L911.6394,29.1337 L906.8738,29.1337 L906.8738,32.3837 L912.1394,32.3837 L912.1394,34.54 Z " fill="#000000"/><text fill="#000000" font-family="sans-serif" font-size="14" lengthAdjust="spacing" textLength="104.6719" x="922.03" y="33.3867">ActivationType</text><line style="stroke:#181818;stroke-width:0.5;" x1="894.03" x2="1028.7019" y1="44.54" y2="44.54"/><text fill="#000000" font-family="sans-serif" font-size="14" lengthAdjust="spacing" textLength="54.79" x="899.03" y="61.5351">primary</text><text fill="#000000" font-family="sans-serif" font-size="14" lengthAdjust="spacing" textLength="72.5498" x="899.03" y="77.832">secondary</text></g><!--class ExplanationFragment--><g class="entity" data-entity="ExplanationFragment" data-source-line="15" data-uid="ent0003" id="entity_ExplanationFragment"><rect fill="#F1F1F1" height="80.8594" rx="2.5" ry="2.5" style="stroke:#181818;stroke-width:0.5;" width="182.6436" x="409.05" y="151.67"/><ellipse cx="424.05" cy="171.8028" fill="#ADD1B2" rx="11" ry="11" style="stroke:#181818;stroke-width:1;"/><path d="M427.0188,177.4434 Q426.4406,177.7403 425.8,177.8809 Q425.1594,178.0372 424.4563,178.0372 Q421.9563,178.0372 420.6281,176.3966 Q419.3156,174.7403 419.3156,171.6153 Q419.3156,168.4903 420.6281,166.8341 Q421.9563,165.1778 424.4563,165.1778 Q425.1594,165.1778 425.8,165.3341 Q426.4563,165.4903 427.0188,165.7872 L427.0188,168.5059 Q426.3938,167.9278 425.8,167.6622 Q425.2063,167.3809 424.5813,167.3809 Q423.2375,167.3809 422.55,168.4591 Q421.8625,169.5216 421.8625,171.6153 Q421.8625,173.7091 422.55,174.7872 Q423.2375,175.8497 424.5813,175.8497 Q425.2063,175.8497 425.8,175.5841 Q426.3938,175.3028 427.0188,174.7247 L427.0188,177.4434 Z " fill="#000000"/><text fill="#000000" font-family="sans-serif" font-size="12" font-style="italic" lengthAdjust="spacing" textLength="34.1836" x="496.28" y="167.8087">&#171;ICE&#187;</text><text fill="#000000" font-family="sans-serif" font-size="14" lengthAdjust="spacing" textLength="150.6436" x="438.05" y="183.6339">ExplanationFragment</text><line style="stroke:#181818;stroke-width:0.5;" x1="410.05" x2="590.6936" y1="191.9356" y2="191.9356"/><text fill="#000000" font-family="sans-serif" font-size="14" lengthAdjust="spacing" textLength="52.418" x="415.05" y="208.9307">+iri: IRI</text><text fill="#000000" font-family="sans-serif" font-size="14" lengthAdjust="spacing" textLength="88.9629" x="415.05" y="225.2276">+text: string</text></g><!--class ExplanationElement--><g class="entity" data-entity="ExplanationElement" data-source-line="20" data-uid="ent0004" id="entity_ExplanationElement"><rect fill="#F1F1F1" height="80.8594" rx="2.5" ry="2.5" style="stroke:#181818;stroke-width:0.5;" width="172.7178" x="189.01" y="292.53"/><ellipse cx="204.01" cy="312.6628" fill="#A9DCDF" rx="11" ry="11" style="stroke:#181818;stroke-width:1;"/><path d="M204.1194,308.0066 L202.9631,313.0847 L205.2913,313.0847 L204.1194,308.0066 Z M202.635,305.7722 L205.6194,305.7722 L208.9788,318.1628 L206.5256,318.1628 L205.76,315.1003 L202.4788,315.1003 L201.7288,318.1628 L199.2913,318.1628 L202.635,305.7722 Z " fill="#000000"/><text fill="#000000" font-family="sans-serif" font-size="12" font-style="italic" lengthAdjust="spacing" textLength="34.1836" x="271.2771" y="308.6687">&#171;ICE&#187;</text><text fill="#000000" font-family="sans-serif" font-size="14" font-style="italic" lengthAdjust="spacing" textLength="140.7178" x="218.01" y="324.4939">ExplanationElement</text><line style="stroke:#181818;stroke-width:0.5;" x1="190.01" x2="360.7278" y1="332.7956" y2="332.7956"/><text fill="#000000" font-family="sans-serif" font-size="14" lengthAdjust="spacing" textLength="52.418" x="195.01" y="349.7907">+iri: IRI</text><text fill="#000000" font-family="sans-serif" font-size="14" lengthAdjust="spacing" textLength="94.9443" x="195.01" y="366.0876">+label: string</text></g><!--class Keyword--><g class="entity" data-entity="Keyword" data-source-line="25" data-uid="ent0005" id="entity_Keyword"><rect fill="#F1F1F1" height="40.2656" rx="2.5" ry="2.5" style="stroke:#181818;stroke-width:0.5;" width="92.7373" x="7" y="456.09"/><ellipse cx="22" cy="476.2228" fill="#ADD1B2" rx="11" ry="11" style="stroke:#181818;stroke-width:1;"/><path d="M24.9688,481.8634 Q24.3906,482.1603 23.75,482.3009 Q23.1094,482.4572 22.4063,482.4572 Q19.9063,482.4572 18.5781,480.8166 Q17.2656,479.1603 17.2656,476.0353 Q17.2656,472.9103 18.5781,471.2541 Q19.9063,469.5978 22.4063,469.5978 Q23.1094,469.5978 23.75,469.7541 Q24.4063,469.9103 24.9688,470.2072 L24.9688,472.9259 Q24.3438,472.3478 23.75,472.0822 Q23.1563,471.8009 22.5313,471.8009 Q21.1875,471.8009 20.5,472.8791 Q19.8125,473.9416 19.8125,476.0353 Q19.8125,478.1291 20.5,479.2072 Q21.1875,480.2697 22.5313,480.2697 Q23.1563,480.2697 23.75,480.0041 Q24.3438,479.7228 24.9688,479.1447 L24.9688,481.8634 Z " fill="#000000"/><text fill="#000000" font-family="sans-serif" font-size="12" font-style="italic" lengthAdjust="spacing" textLength="34.1836" x="49.2769" y="472.2287">&#171;ICE&#187;</text><text fill="#000000" font-family="sans-serif" font-size="14" lengthAdjust="spacing" textLength="60.7373" x="36" y="488.0539">Keyword</text></g><!--class ContextObject--><g class="entity" data-entity="ContextObject" data-source-line="26" data-uid="ent0006" id="entity_ContextObject"><rect fill="#F1F1F1" height="40.2656" rx="2.5" ry="2.5" style="stroke:#181818;stroke-width:0.5;" width="132.6865" x="135.03" y="456.09"/><ellipse cx="150.03" cy="476.2228" fill="#ADD1B2" rx="11" ry="11" style="stroke:#181818;stroke-width:1;"/><path d="M152.9988,481.8634 Q152.4206,482.1603 151.78,482.3009 Q151.1394,482.4572 150.4363,482.4572 Q147.9363,482.4572 146.6081,480.8166 Q145.2956,479.1603 145.2956,476.0353 Q145.2956,472.9103 146.6081,471.2541 Q147.9363,469.5978 150.4363,469.5978 Q151.1394,469.5978 151.78,469.7541 Q152.4363,469.9103 152.9988,470.2072 L152.9988,472.9259 Q152.3738,472.3478 151.78,472.0822 Q151.1863,471.8009 150.5613,471.8009 Q149.2175,471.8009 148.53,472.8791 Q147.8425,473.9416 147.8425,476.0353 Q147.8425,478.1291 148.53,479.2072 Q149.2175,480.2697 150.5613,480.2697 Q151.1863,480.2697 151.78,480.0041 Q152.3738,479.7228 152.9988,479.1447 L152.9988,481.8634 Z " fill="#000000"/><text fill="#000000" font-family="sans-serif" font-size="12" font-style="italic" lengthAdjust="spacing" textLength="34.1836" x="197.2815" y="472.2287">&#171;ICE&#187;</text><text fill="#000000" font-family="sans-serif" font-size="14" lengthAdjust="spacing" textLength="100.6865" x="164.03" y="488.0539">ContextObject</text></g><!--class DiscursiveStrategy--><g class="entity" data-entity="DiscursiveStrategy" data-source-line="27" data-uid="ent0007" id="entity_DiscursiveStrategy"><rect fill="#F1F1F1" height="40.2656" rx="2.5" ry="2.5" style="stroke:#181818;stroke-width:0.5;" width="164.3574" x="303.19" y="456.09"/><ellipse cx="318.19" cy="476.2228" fill="#ADD1B2" rx="11" ry="11" style="stroke:#181818;stroke-width:1;"/><path d="M321.1588,481.8634 Q320.5806,482.1603 319.94,482.3009 Q319.2994,482.4572 318.5963,482.4572 Q316.0963,482.4572 314.7681,480.8166 Q313.4556,479.1603 313.4556,476.0353 Q313.4556,472.9103 314.7681,471.2541 Q316.0963,469.5978 318.5963,469.5978 Q319.2994,469.5978 319.94,469.7541 Q320.5963,469.9103 321.1588,470.2072 L321.1588,472.9259 Q320.5338,472.3478 319.94,472.0822 Q319.3463,471.8009 318.7213,471.8009 Q317.3775,471.8009 316.69,472.8791 Q316.0025,473.9416 316.0025,476.0353 Q316.0025,478.1291 316.69,479.2072 Q317.3775,480.2697 318.7213,480.2697 Q319.3463,480.2697 319.94,480.0041 Q320.5338,479.7228 321.1588,479.1447 L321.1588,481.8634 Z " fill="#000000"/><text fill="#000000" font-family="sans-serif" font-size="12" font-style="italic" lengthAdjust="spacing" textLength="34.1836" x="381.2769" y="472.2287">&#171;ICE&#187;</text><text fill="#000000" font-family="sans-serif" font-size="14" lengthAdjust="spacing" textLength="132.3574" x="332.19" y="488.0539">DiscursiveStrategy</text></g><!--class Intelligence--><g class="entity" data-entity="Intelligence" data-source-line="29" data-uid="ent0008" id="entity_Intelligence"><rect fill="#F1F1F1" height="80.8594" rx="2.5" ry="2.5" style="stroke:#181818;stroke-width:0.5;" width="113.457" x="502.64" y="435.79"/><ellipse cx="517.64" cy="455.9228" fill="#ADD1B2" rx="11" ry="11" style="stroke:#181818;stroke-width:1;"/><path d="M520.6088,461.5634 Q520.0306,461.8603 519.39,462.0009 Q518.7494,462.1572 518.0463,462.1572 Q515.5463,462.1572 514.2181,460.5166 Q512.9056,458.8603 512.9056,455.7353 Q512.9056,452.6103 514.2181,450.9541 Q515.5463,449.2978 518.0463,449.2978 Q518.7494,449.2978 519.39,449.4541 Q520.0463,449.6103 520.6088,449.9072 L520.6088,452.6259 Q519.9838,452.0478 519.39,451.7822 Q518.7963,451.5009 518.1713,451.5009 Q516.8275,451.5009 516.14,452.5791 Q515.4525,453.6416 515.4525,455.7353 Q515.4525,457.8291 516.14,458.9072 Q516.8275,459.9697 518.1713,459.9697 Q518.7963,459.9697 519.39,459.7041 Q519.9838,459.4228 520.6088,458.8447 L520.6088,461.5634 Z " fill="#000000"/><text fill="#000000" font-family="sans-serif" font-size="12" font-style="italic" lengthAdjust="spacing" textLength="44.1152" x="550.3109" y="451.9287">&#171;Type&#187;</text><text fill="#000000" font-family="sans-serif" font-size="14" lengthAdjust="spacing" textLength="81.457" x="531.64" y="467.7539">Intelligence</text><line style="stroke:#181818;stroke-width:0.5;" x1="503.64" x2="615.097" y1="476.0556" y2="476.0556"/><text fill="#000000" font-family="sans-serif" font-size="14" lengthAdjust="spacing" textLength="52.418" x="508.64" y="493.0507">+iri: IRI</text><text fill="#000000" font-family="sans-serif" font-size="14" lengthAdjust="spacing" textLength="94.9443" x="508.64" y="509.3476">+label: string</text></g><!--class IntelligenceActivation--><g class="entity" data-entity="IntelligenceActivation" data-source-line="34" data-uid="ent0009" id="entity_IntelligenceActivation"><rect fill="#F1F1F1" height="80.8594" rx="2.5" ry="2.5" style="stroke:#181818;stroke-width:0.5;" width="283.5098" x="584.61" y="292.53"/><ellipse cx="646.2189" cy="312.6628" fill="#ADD1B2" rx="11" ry="11" style="stroke:#181818;stroke-width:1;"/><path d="M649.1876,318.3034 Q648.6095,318.6003 647.9689,318.7409 Q647.3283,318.8972 646.6251,318.8972 Q644.1251,318.8972 642.797,317.2566 Q641.4845,315.6003 641.4845,312.4753 Q641.4845,309.3503 642.797,307.6941 Q644.1251,306.0378 646.6251,306.0378 Q647.3283,306.0378 647.9689,306.1941 Q648.6251,306.3503 649.1876,306.6472 L649.1876,309.3659 Q648.5626,308.7878 647.9689,308.5222 Q647.3751,308.2409 646.7501,308.2409 Q645.4064,308.2409 644.7189,309.3191 Q644.0314,310.3816 644.0314,312.4753 Q644.0314,314.5691 644.7189,315.6472 Q645.4064,316.7097 646.7501,316.7097 Q647.3751,316.7097 647.9689,316.4441 Q648.5626,316.1628 649.1876,315.5847 L649.1876,318.3034 Z " fill="#000000"/><text fill="#000000" font-family="sans-serif" font-size="12" font-style="italic" lengthAdjust="spacing" textLength="74.4902" x="705.3698" y="308.6687">&#171;Occurrent&#187;</text><text fill="#000000" font-family="sans-serif" font-size="14" lengthAdjust="spacing" textLength="151.792" x="666.7189" y="324.4939">IntelligenceActivation</text><line style="stroke:#181818;stroke-width:0.5;" x1="585.61" x2="867.1198" y1="332.7956" y2="332.7956"/><text fill="#000000" font-family="sans-serif" font-size="14" lengthAdjust="spacing" textLength="52.418" x="590.61" y="349.7907">+iri: IRI</text><text fill="#000000" font-family="sans-serif" font-size="14" lengthAdjust="spacing" textLength="271.5098" x="590.61" y="366.0876">+hasType: ActivationType  ' functional</text></g><g class="entity" data-entity="GMN17" data-source-line="52" data-uid="ent0018" id="entity_GMN17"><path d="M397.01,297.69 L397.01,329.05 L362.21,333.05 L397.01,337.05 L397.01,368.2212 A0,0 0 0 0 397.01,368.2212 L549.7366,368.2212 A0,0 0 0 0 549.7366,368.2212 L549.7366,307.69 L539.7366,297.69 L397.01,297.69 A0,0 0 0 0 397.01,297.69" fill="#FEFFDD" style="stroke:#181818;stroke-width:0.5;"/><path d="M539.7366,297.69 L539.7366,307.69 L549.7366,307.69 L539.7366,297.69" fill="#FEFFDD" style="stroke:#181818;stroke-width:0.5;"/><text fill="#000000" font-family="sans-serif" font-size="13" lengthAdjust="spacing" textLength="104.4634" x="403.01" y="314.7569">Disjoint classes:</text><text fill="#000000" font-family="sans-serif" font-size="13" lengthAdjust="spacing" textLength="65.2222" x="403.01" y="329.8897">- Keyword</text><text fill="#000000" font-family="sans-serif" font-size="13" lengthAdjust="spacing" textLength="102.3179" x="403.01" y="345.0225">- ContextObject</text><text fill="#000000" font-family="sans-serif" font-size="13" lengthAdjust="spacing" textLength="131.7266" x="403.01" y="360.1553">- DiscursiveStrategy</text></g><g class="entity" data-entity="GMN20" data-source-line="59" data-uid="ent0021" id="entity_GMN20"><path d="M651.26,433.39 L651.26,519.0541 A0,0 0 0 0 651.26,519.0541 L951.4871,519.0541 A0,0 0 0 0 951.4871,519.0541 L951.4871,443.39 L941.4871,433.39 L763.69,433.39 L759.69,373.63 L755.69,433.39 L651.26,433.39 A0,0 0 0 0 651.26,433.39" fill="#FEFFDD" style="stroke:#181818;stroke-width:0.5;"/><path d="M941.4871,433.39 L941.4871,443.39 L951.4871,443.39 L941.4871,433.39" fill="#FEFFDD" style="stroke:#181818;stroke-width:0.5;"/><text fill="#000000" font-family="sans-serif" font-size="13" lengthAdjust="spacing" textLength="204.5786" x="657.26" y="450.4569">Reified event (BFO: Occurrent).</text><text fill="#000000" font-family="sans-serif" font-size="13" lengthAdjust="spacing" textLength="80.4692" x="657.26" y="465.5897">depends on:</text><text fill="#000000" font-family="sans-serif" font-size="13" lengthAdjust="spacing" textLength="212.2085" x="665.5246" y="480.7225">- ExplanationFragment (context)</text><text fill="#000000" font-family="sans-serif" font-size="13" lengthAdjust="spacing" textLength="138.4932" x="665.5246" y="495.8553">- Intelligence (target)</text><text fill="#000000" font-family="sans-serif" font-size="13" lengthAdjust="spacing" textLength="279.2271" x="657.26" y="510.9881">hasType is functional (primary|secondary).</text></g><g class="entity" data-entity="GMN23" data-source-line="67" data-uid="ent0024" id="entity_GMN23"><path d="M99.43,28.7 L99.43,68.9656 A0,0 0 0 0 99.43,68.9656 L453.18,68.9656 L457.18,151.23 L461.18,68.9656 L505.3138,68.9656 A0,0 0 0 0 505.3138,68.9656 L505.3138,38.7 L495.3138,28.7 L99.43,28.7 A0,0 0 0 0 99.43,28.7" fill="#FEFFDD" style="stroke:#181818;stroke-width:0.5;"/><path d="M495.3138,28.7 L495.3138,38.7 L505.3138,38.7 L495.3138,28.7" fill="#FEFFDD" style="stroke:#181818;stroke-width:0.5;"/><text fill="#000000" font-family="sans-serif" font-size="13" lengthAdjust="spacing" textLength="244.4038" x="105.43" y="45.7669">IAO: Information Content Entity (ICE).</text><text fill="#000000" font-family="sans-serif" font-size="13" lengthAdjust="spacing" textLength="384.8838" x="105.43" y="60.8997">Container dos elementos sem&#226;nticos usados na infer&#234;ncia.</text></g><g class="entity" data-entity="N1" data-source-line="72" data-uid="ent0026" id="entity_N1"><path d="M540.69,6 L540.69,91.6641 A0,0 0 0 0 540.69,91.6641 L562.19,91.6641 L566.19,151.6 L570.19,91.6641 L858.0494,91.6641 A0,0 0 0 0 858.0494,91.6641 L858.0494,16 L848.0494,6 L540.69,6 A0,0 0 0 0 540.69,6" fill="#FEFFDD" style="stroke:#181818;stroke-width:0.5;"/><path d="M848.0494,6 L848.0494,16 L858.0494,16 L848.0494,6" fill="#FEFFDD" style="stroke:#181818;stroke-width:0.5;"/><text fill="#000000" font-family="sans-serif" font-size="13" lengthAdjust="spacing" textLength="186.0752" x="546.69" y="23.0669">Dom&#237;nios/alcances m&#237;nimos:</text><text fill="#000000" font-family="sans-serif" font-size="13" lengthAdjust="spacing" textLength="241.6489" x="550.8223" y="38.1997">- usesElement: Fragment -&gt; Element</text><text fill="#000000" font-family="sans-serif" font-size="13" lengthAdjust="spacing" textLength="292.2271" x="550.8223" y="53.3325">- evokesIntelligence: Element -&gt; Intelligence</text><text fill="#000000" font-family="sans-serif" font-size="13" lengthAdjust="spacing" textLength="257.8228" x="550.8223" y="68.4653">- hasActivation: Fragment -&gt; Activation</text><text fill="#000000" font-family="sans-serif" font-size="13" lengthAdjust="spacing" textLength="236.063" x="550.8223" y="83.5981">- refersTo: Activation -&gt; Intelligence</text></g><!--reverse link ExplanationElement to Keyword--><g class="link" data-entity-1="ExplanationElement" data-entity-2="Keyword" data-source-line="40" data-uid="lnk10" id="link_ExplanationElement_Keyword"><path codeLine="40" d="M170.52,333.05 C108.22,333.05 53.21,333.05 53.21,333.05 C53.21,333.05 53.21,416.12 53.21,455.71" fill="none" id="ExplanationElement-backto-Keyword" style="stroke:#181818;stroke-width:1;"/><polygon fill="none" points="188.52,333.05,170.52,327.05,170.52,339.05,188.52,333.05" style="stroke:#181818;stroke-width:1;"/></g><!--reverse link ExplanationElement to ContextObject--><g class="link" data-entity-1="ExplanationElement" data-entity-2="ContextObject" data-source-line="41" data-uid="lnk11" id="link_ExplanationElement_ContextObject"><path codeLine="41" d="M228.36,391.63 C228.36,418.43 228.36,434.39 228.36,455.72" fill="none" id="ExplanationElement-backto-ContextObject" style="stroke:#181818;stroke-width:1;"/><polygon fill="none" points="228.36,373.63,222.36,391.63,234.36,391.63,228.36,373.63" style="stroke:#181818;stroke-width:1;"/></g><!--reverse link ExplanationElement to DiscursiveStrategy--><g class="link" data-entity-1="ExplanationElement" data-entity-2="DiscursiveStrategy" data-source-line="42" data-uid="lnk12" id="link_ExplanationElement_DiscursiveStrategy"><path codeLine="42" d="M322.7,391.63 C322.7,418.43 322.7,434.39 322.7,455.72" fill="none" id="ExplanationElement-backto-DiscursiveStrategy" style="stroke:#181818;stroke-width:1;"/><polygon fill="none" points="322.7,373.63,316.7,391.63,328.7,391.63,322.7,373.63" style="stroke:#181818;stroke-width:1;"/></g><!--reverse link ExplanationFragment to ExplanationElement--><g class="link" data-entity-1="ExplanationFragment" data-entity-2="ExplanationElement" data-source-line="45" data-uid="lnk13" id="link_ExplanationFragment_ExplanationElement"><path codeLine="45" d="M396.85,193.05 C334.56,193.05 275.37,193.05 275.37,193.05 C275.37,193.05 275.37,250.82 275.37,292.11" fill="none" id="ExplanationFragment-backto-ExplanationElement" style="stroke:#181818;stroke-width:1;"/><polygon fill="none" points="408.85,193.05,402.85,189.05,396.85,193.05,402.85,197.05,408.85,193.05" style="stroke:#181818;stroke-width:1;"/><text fill="#000000" font-family="sans-serif" font-size="13" lengthAdjust="spacing" textLength="83.605" x="208.58" y="189.1169">usesElement</text><text fill="#000000" font-family="sans-serif" font-size="13" lengthAdjust="spacing" textLength="8.271" x="392.6527" y="189.5597">1</text><text fill="#000000" font-family="sans-serif" font-size="13" lengthAdjust="spacing" textLength="23.0356" x="250.5402" y="281.4817">0..*</text></g><!--link ExplanationElement to Intelligence--><g class="link" data-entity-1="ExplanationElement" data-entity-2="Intelligence" data-source-line="46" data-uid="lnk14" id="link_ExplanationElement_Intelligence"><path codeLine="46" d="M342.22,373.79 C342.22,406.18 342.22,446.05 342.22,446.05 C342.22,446.05 431.98,446.05 496.31,446.05" fill="none" id="ExplanationElement-to-Intelligence" style="stroke:#181818;stroke-width:1;"/><polygon fill="#181818" points="502.31,446.05,493.31,442.05,497.31,446.05,493.31,450.05,502.31,446.05" style="stroke:#181818;stroke-width:1;"/><text fill="#000000" font-family="sans-serif" font-size="13" lengthAdjust="spacing" textLength="121.583" x="264.13" y="442.1169">evokesIntelligence</text><text fill="#000000" font-family="sans-serif" font-size="13" lengthAdjust="spacing" textLength="8.271" x="344.2585" y="393.5701">1</text><text fill="#000000" font-family="sans-serif" font-size="13" lengthAdjust="spacing" textLength="23.0356" x="471.8134" y="439.004">1..*</text></g><!--reverse link ExplanationFragment to IntelligenceActivation--><g class="link" data-entity-1="ExplanationFragment" data-entity-2="IntelligenceActivation" data-source-line="47" data-uid="lnk15" id="link_ExplanationFragment_IntelligenceActivation"><path codeLine="47" d="M588.15,244.84 C588.15,263.53 588.15,273.63 588.15,292.31" fill="none" id="ExplanationFragment-backto-IntelligenceActivation" style="stroke:#181818;stroke-width:1;"/><polygon fill="none" points="588.15,232.84,584.15,238.84,588.15,244.84,592.15,238.84,588.15,232.84" style="stroke:#181818;stroke-width:1;"/><text fill="#000000" font-family="sans-serif" font-size="13" lengthAdjust="spacing" textLength="88.2896" x="589.15" y="258.6369">hasActivation</text><text fill="#000000" font-family="sans-serif" font-size="13" lengthAdjust="spacing" textLength="8.271" x="593.5237" y="252.6058">1</text><text fill="#000000" font-family="sans-serif" font-size="13" lengthAdjust="spacing" textLength="23.0356" x="553.6888" y="285.6955">0..*</text></g><!--link IntelligenceActivation to Intelligence--><g class="link" data-entity-1="IntelligenceActivation" data-entity-2="Intelligence" data-source-line="48" data-uid="lnk16" id="link_IntelligenceActivation_Intelligence"><path codeLine="48" d="M600.36,373.63 C600.36,392.98 600.36,410.08 600.36,429.45" fill="none" id="IntelligenceActivation-to-Intelligence" style="stroke:#181818;stroke-width:1;"/><polygon fill="#181818" points="600.36,435.45,604.36,426.45,600.36,430.45,596.36,426.45,600.36,435.45" style="stroke:#181818;stroke-width:1;"/><text fill="#000000" font-family="sans-serif" font-size="13" lengthAdjust="spacing" textLength="53.9297" x="601.36" y="400.6069">refersTo</text><text fill="#000000" font-family="sans-serif" font-size="13" lengthAdjust="spacing" textLength="8.271" x="571.6621" y="393.3846">1</text><text fill="#000000" font-family="sans-serif" font-size="13" lengthAdjust="spacing" textLength="8.271" x="598.2771" y="424.8345">1</text></g><!--SRC=[ZLJ1Rjim3BtxAuXSccv8rbwDhK3MfK0m80NQ_e1YCubQMJ8aEckwxaTssou31kmqx0lyOwCK9x5ZP-l9DFNuI3rINCeK0RESrf1XDaFh8lSWTIwio21HmhaHaPMpWd2I67qhdn3EQX0bDT8wHp2MbYQAJc3i22sMlqdcniNiUFjsSZc-k81tC1bTnp3HSsCpGT9ek3IQK1ECDKbQ1-nraXJMiZD4lB_YY9qh0EuuMpYxumJ0DIKegH0Aq57vROKgYb0N6OmIagkGnaV0vmWWjp8JTisMGmvClVqbYi8rOVoOAw53m9KLYypNjItT1x-MLdBrDnDl4pvI38wLqGjF8MPiYuIWnJLM-6yg9MQewbmRYe-u_cHikeshl46mHxgUtMD21sSVf6ETd5pXBTT2k5Zl01LYmi5AoGMoPdibNrfHFNelxa7BMcHBuNoU-B0VS0BpGYV-NoYVn4zEZeaKIZw9yaVv1rtKfUFpOB0Lv-XvGwQZgBPWleeRL5Lww5EH6duTK6G2og_JoUN83_nId4PTqz8xxu5XtjxPSFYgrpK4CHGENVNNLPUd60mk-1ie6WsB0LVc0LtT-P8wZlGj1cxD_Zyw0jjNr2h7ufptnLruzLD3maNQ48ALYoM1cNS8m0F1ejyRgQkNWhmX0FODzNQpUTxJqIZKAVXiqIRdp12Pp2VjlWRJtA2SIqnPHAzHlxbPJeUCI35dMWT6-w9yuYvr-yccljCAqn2bJy8kC9nLWm_IrGOT-jKEUjvj84vzS1ao-O5ys-HC-vyT2dr-yU4stYzuErj8ZGFSD80jXrdvdR49suKJ_b0Ba9fxMVxK_FvQzGW7qtFVEfELlxGqxerGYU3hEWYEp8GkiXQrwOvXfnXFpxx_Z6gFSRm5U6nZlaD0Or2Rn8qMCtGxa_LzqoBTtMzw3iDXbz1_0G00]--></g></svg>